{"glyphs":{"0":{"ha":949,"x_min":0,"x_max":0,"o":"m 76 497 b 475 -18 76 188 225 -18 b 872 497 724 -18 872 188 b 475 1014 872 806 721 1014 b 76 497 228 1014 76 806 z m 175 497 b 475 922 175 757 285 922 b 775 497 665 922 775 757 b 475 72 775 239 665 72 b 175 497 285 72 175 239 z "},"1":{"ha":464,"x_min":0,"x_max":0,"o":"m 251 904 l 251 0 l 347 0 l 347 994 l 49 994 l 49 904 z "},"2":{"ha":781,"x_min":0,"x_max":0,"o":"m 718 0 l 718 93 l 217 93 l 449 296 b 713 710 647 469 713 565 b 400 1013 713 892 588 1013 b 67 667 204 1013 72 875 l 167 667 b 399 921 171 821 261 921 b 611 704 531 921 611 839 b 381 357 611 586 564 517 l 63 79 l 63 0 z "},"3":{"ha":789,"x_min":0,"x_max":0,"o":"m 351 533 b 626 313 529 533 626 449 b 382 74 626 168 531 74 b 153 303 242 74 153 160 l 54 303 b 382 -17 54 104 186 -17 b 728 310 583 -17 728 113 b 408 618 728 490 594 608 l 706 914 l 706 994 l 103 994 l 103 906 l 579 906 l 272 603 l 272 533 z "},"4":{"ha":871,"x_min":0,"x_max":0,"o":"m 792 211 l 792 300 l 675 300 l 675 994 l 542 994 l 56 300 l 56 211 l 578 211 l 578 0 l 675 0 l 675 211 z m 164 300 l 578 892 l 578 300 z "},"5":{"ha":810,"x_min":0,"x_max":0,"o":"m 403 -17 b 753 325 611 -17 753 125 b 418 660 753 511 625 660 b 213 590 340 660 268 635 l 288 903 l 696 903 l 696 994 l 215 994 l 96 494 l 175 469 b 404 571 229 529 313 571 b 651 322 561 571 651 461 b 404 75 651 175 554 75 b 175 304 263 75 175 161 l 75 304 b 403 -17 75 108 203 -17 z "},"6":{"ha":838,"x_min":0,"x_max":0,"o":"m 189 660 b 64 336 96 532 64 451 b 421 -17 64 138 221 -17 b 774 336 619 -17 774 132 b 429 682 774 531 636 682 b 293 649 383 682 340 672 l 554 994 l 438 994 z m 165 335 b 421 594 165 486 269 594 b 674 335 568 594 674 486 b 421 74 674 183 568 74 b 165 335 269 74 165 183 z "},"7":{"ha":700,"x_min":0,"x_max":0,"o":"m 13 994 l 13 903 l 588 903 l 194 0 l 297 0 l 689 903 l 689 994 z "},"8":{"ha":850,"x_min":0,"x_max":0,"o":"m 71 271 b 425 -17 71 100 214 -17 b 779 269 636 -17 779 100 b 588 531 779 394 703 494 b 742 754 686 568 742 650 b 426 1013 742 908 615 1013 b 106 756 236 1013 106 908 b 263 531 106 653 163 571 b 71 271 144 490 71 393 z m 200 753 b 425 924 200 857 289 924 b 647 750 560 924 647 857 b 425 569 647 640 560 569 b 200 753 289 569 200 643 z m 169 279 b 424 481 169 401 269 481 b 681 279 581 481 681 401 b 426 74 681 156 578 74 b 169 279 272 74 169 156 z "},"9":{"ha":838,"x_min":0,"x_max":0,"o":"m 649 336 b 774 658 743 463 774 543 b 417 1013 774 858 617 1013 b 64 660 218 1013 64 863 b 408 314 64 465 201 314 b 544 347 456 314 499 322 l 283 0 l 400 0 z m 674 660 b 417 401 674 510 568 401 b 164 660 269 401 164 510 b 417 921 164 811 269 921 b 674 660 568 921 674 811 z "},"A":{"ha":896,"x_min":0,"x_max":0,"o":"m 121 0 l 218 264 l 676 264 l 774 0 l 878 0 l 508 994 l 385 994 l 19 0 z m 433 854 b 446 894 439 868 444 886 b 458 854 447 885 454 868 l 644 351 l 249 351 z "},"Á":{"ha":896,"x_min":0,"x_max":0,"o":"m 594 1235 l 494 1235 l 411 1069 l 489 1069 z m 121 0 l 218 264 l 676 264 l 774 0 l 878 0 l 508 994 l 385 994 l 19 0 z m 433 854 b 446 894 439 868 444 886 b 458 854 447 885 454 868 l 644 351 l 249 351 z "},"Ă":{"ha":896,"x_min":0,"x_max":0,"o":"m 539 1236 b 447 1139 539 1175 508 1139 b 354 1236 386 1139 354 1175 l 276 1236 b 447 1064 276 1129 343 1064 b 617 1236 550 1064 617 1131 z m 121 0 l 218 264 l 676 264 l 774 0 l 878 0 l 508 994 l 385 994 l 19 0 z m 433 854 b 446 894 439 868 444 886 b 458 854 447 885 454 868 l 644 351 l 249 351 z "},"Â":{"ha":896,"x_min":0,"x_max":0,"o":"m 367 1069 l 447 1193 l 526 1069 l 613 1069 l 507 1239 l 386 1239 l 281 1069 z m 121 0 l 218 264 l 676 264 l 774 0 l 878 0 l 508 994 l 385 994 l 19 0 z m 433 854 b 446 894 439 868 444 886 b 458 854 447 885 454 868 l 644 351 l 249 351 z "},"Ä":{"ha":896,"x_min":0,"x_max":0,"o":"m 346 1097 b 414 1165 382 1097 414 1128 b 346 1235 414 1203 382 1235 b 276 1165 308 1235 276 1203 b 346 1097 276 1128 307 1097 z m 549 1097 b 617 1165 585 1097 617 1128 b 549 1235 617 1203 585 1235 b 479 1165 511 1235 479 1203 b 549 1097 479 1128 510 1097 z m 121 0 l 218 264 l 676 264 l 774 0 l 878 0 l 508 994 l 385 994 l 19 0 z m 433 854 b 446 894 439 868 444 886 b 458 854 447 885 454 868 l 644 351 l 249 351 z "},"À":{"ha":896,"x_min":0,"x_max":0,"o":"m 482 1069 l 401 1236 l 300 1236 l 404 1069 z m 121 0 l 218 264 l 676 264 l 774 0 l 878 0 l 508 994 l 385 994 l 19 0 z m 433 854 b 446 894 439 868 444 886 b 458 854 447 885 454 868 l 644 351 l 249 351 z "},"Ā":{"ha":896,"x_min":0,"x_max":0,"o":"m 286 1147 l 607 1147 l 607 1224 l 286 1224 z m 121 0 l 218 264 l 676 264 l 774 0 l 878 0 l 508 994 l 385 994 l 19 0 z m 433 854 b 446 894 439 868 444 886 b 458 854 447 885 454 868 l 644 351 l 249 351 z "},"Ą":{"ha":896,"x_min":0,"x_max":0,"o":"m 121 0 l 218 264 l 676 264 l 774 0 l 810 0 b 724 -115 753 -26 724 -69 b 825 -211 724 -171 764 -211 b 875 -203 843 -211 860 -208 l 875 -129 b 846 -135 864 -133 856 -135 b 797 -92 818 -135 797 -122 b 876 0 797 -61 822 -24 l 878 0 l 508 994 l 385 994 l 19 0 z m 433 854 b 446 894 439 868 444 886 b 458 854 447 885 454 868 l 644 351 l 249 351 z "},"Å":{"ha":896,"x_min":0,"x_max":0,"o":"m 447 1065 b 596 1217 532 1065 596 1132 b 447 1365 596 1300 532 1365 b 297 1217 363 1365 297 1301 b 447 1065 297 1129 360 1065 z m 447 1132 b 367 1217 399 1132 367 1167 b 447 1301 367 1267 400 1301 b 526 1217 493 1301 526 1265 b 447 1132 526 1167 494 1132 z m 121 0 l 218 264 l 676 264 l 774 0 l 878 0 l 508 994 l 385 994 l 19 0 z m 433 854 b 446 894 439 868 444 886 b 458 854 447 885 454 868 l 644 351 l 249 351 z "},"Ǻ":{"ha":896,"x_min":0,"x_max":0,"o":"m 594 1425 l 494 1425 l 410 1260 l 489 1260 z m 121 0 l 218 264 l 676 264 l 774 0 l 878 0 l 522 956 b 596 1085 567 982 596 1029 b 446 1235 596 1169 531 1235 b 296 1085 361 1235 296 1171 b 369 954 296 1026 324 979 l 19 0 z m 446 1000 b 365 1086 397 1000 365 1035 b 446 1171 365 1136 399 1171 b 525 1086 492 1171 525 1135 b 446 1000 525 1035 493 1000 z m 433 854 b 446 894 439 868 444 886 b 458 854 447 885 454 868 l 644 351 l 249 351 z "},"Ã":{"ha":896,"x_min":0,"x_max":0,"o":"m 322 1093 b 367 1168 322 1142 338 1168 b 529 1093 414 1168 450 1093 b 639 1240 603 1093 643 1144 l 571 1240 b 524 1165 571 1190 557 1165 b 354 1240 467 1165 431 1240 b 253 1093 288 1240 247 1185 z m 121 0 l 218 264 l 676 264 l 774 0 l 878 0 l 508 994 l 385 994 l 19 0 z m 433 854 b 446 894 439 868 444 886 b 458 854 447 885 454 868 l 644 351 l 249 351 z "},"Æ":{"ha":1246,"x_min":0,"x_max":0,"o":"m 13 0 l 119 0 l 233 288 l 571 288 l 571 0 l 1164 0 l 1164 92 l 671 92 l 671 454 l 1117 454 l 1117 544 l 671 544 l 671 903 l 1164 903 l 1164 994 l 410 994 z m 267 375 l 475 903 l 571 903 l 571 375 z "},"Ǽ":{"ha":1246,"x_min":0,"x_max":0,"o":"m 925 1235 l 824 1235 l 740 1069 l 818 1069 z m 13 0 l 119 0 l 233 288 l 571 288 l 571 0 l 1164 0 l 1164 92 l 671 92 l 671 454 l 1117 454 l 1117 544 l 671 544 l 671 903 l 1164 903 l 1164 994 l 410 994 z m 267 375 l 475 903 l 571 903 l 571 375 z "},"B":{"ha":874,"x_min":0,"x_max":0,"o":"m 121 0 l 506 0 b 814 261 694 0 814 101 b 640 501 814 383 756 464 b 794 738 743 542 794 621 b 485 994 794 897 676 994 l 121 994 z m 483 906 b 692 729 617 906 692 840 b 496 542 692 611 621 542 l 221 542 l 221 906 z m 506 454 b 713 274 635 454 713 386 b 506 90 713 158 636 90 l 221 90 l 221 454 z "},"C":{"ha":1013,"x_min":0,"x_max":0,"o":"m 526 -15 b 960 299 740 -15 914 111 l 853 299 b 528 81 810 165 685 81 b 164 497 310 81 164 247 b 528 915 164 749 310 915 b 847 685 683 915 806 828 l 954 685 b 532 1011 914 882 746 1011 b 60 497 251 1011 60 803 b 526 -15 60 192 249 -15 z "},"Ć":{"ha":1013,"x_min":0,"x_max":0,"o":"m 679 1235 l 579 1235 l 494 1069 l 574 1069 z m 526 -15 b 960 299 740 -15 914 111 l 853 299 b 528 81 810 165 685 81 b 164 497 310 81 164 247 b 528 915 164 749 310 915 b 847 685 683 915 806 828 l 954 685 b 532 1011 914 882 746 1011 b 60 497 251 1011 60 803 b 526 -15 60 192 249 -15 z "},"Č":{"ha":1013,"x_min":0,"x_max":0,"o":"m 469 1069 l 590 1069 l 697 1239 l 610 1239 l 531 1117 l 450 1239 l 364 1239 z m 526 -15 b 960 299 740 -15 914 111 l 853 299 b 528 81 810 165 685 81 b 164 497 310 81 164 247 b 528 915 164 749 310 915 b 847 685 683 915 806 828 l 954 685 b 532 1011 914 882 746 1011 b 60 497 251 1011 60 803 b 526 -15 60 192 249 -15 z "},"Ç":{"ha":1013,"x_min":0,"x_max":0,"o":"m 446 -233 b 532 -254 471 -249 497 -254 b 656 -147 597 -254 656 -219 b 561 -56 656 -87 613 -56 b 519 -62 547 -56 533 -58 l 542 -15 b 960 299 749 -10 915 115 l 853 299 b 528 81 810 165 685 81 b 164 497 310 81 164 247 b 528 915 164 749 310 915 b 847 685 683 915 806 828 l 954 685 b 532 1011 914 882 746 1011 b 60 497 251 1011 60 803 b 486 -14 60 207 231 6 l 453 -86 l 465 -121 b 533 -104 494 -108 508 -104 b 589 -150 567 -104 589 -119 b 525 -197 589 -181 561 -197 b 446 -175 497 -197 472 -189 z "},"Ĉ":{"ha":1013,"x_min":0,"x_max":0,"o":"m 450 1069 l 531 1193 l 610 1069 l 696 1069 l 590 1239 l 469 1239 l 364 1069 z m 526 -15 b 960 299 740 -15 914 111 l 853 299 b 528 81 810 165 685 81 b 164 497 310 81 164 247 b 528 915 164 749 310 915 b 847 685 683 915 806 828 l 954 685 b 532 1011 914 882 746 1011 b 60 497 251 1011 60 803 b 526 -15 60 192 249 -15 z "},"Ċ":{"ha":1013,"x_min":0,"x_max":0,"o":"m 531 1097 b 600 1167 568 1097 600 1129 b 531 1238 600 1204 568 1238 b 461 1167 493 1238 461 1204 b 531 1097 461 1129 492 1097 z m 526 -15 b 960 299 740 -15 914 111 l 853 299 b 528 81 810 165 685 81 b 164 497 310 81 164 247 b 528 915 164 749 310 915 b 847 685 683 915 806 828 l 954 685 b 532 1011 914 882 746 1011 b 60 497 251 1011 60 803 b 526 -15 60 192 249 -15 z "},"D":{"ha":981,"x_min":0,"x_max":0,"o":"m 424 0 b 921 497 722 0 921 200 b 421 994 921 794 721 994 l 121 994 l 121 0 z m 417 903 b 818 497 663 903 818 746 b 419 92 818 250 663 92 l 221 92 l 221 903 z "},"Ð":{"ha":981,"x_min":0,"x_max":0,"o":"m 424 0 b 921 497 722 0 921 200 b 421 994 921 794 721 994 l 121 994 l 121 540 l 25 540 l 25 454 l 121 454 l 121 0 z m 435 454 l 435 540 l 221 540 l 221 903 l 417 903 b 818 497 663 903 818 746 b 419 92 818 250 663 92 l 221 92 l 221 454 z "},"Ď":{"ha":981,"x_min":0,"x_max":0,"o":"m 356 1069 l 476 1069 l 582 1238 l 496 1238 l 417 1115 l 336 1238 l 250 1238 z m 424 0 b 921 497 722 0 921 200 b 421 994 921 794 721 994 l 121 994 l 121 0 z m 417 903 b 818 497 663 903 818 746 b 419 92 818 250 663 92 l 221 92 l 221 903 z "},"Đ":{"ha":981,"x_min":0,"x_max":0,"o":"m 424 0 b 921 497 722 0 921 200 b 421 994 921 794 721 994 l 121 994 l 121 540 l 25 540 l 25 454 l 121 454 l 121 0 z m 435 454 l 435 540 l 221 540 l 221 903 l 417 903 b 818 497 663 903 818 746 b 419 92 818 250 663 92 l 221 92 l 221 454 z "},"E":{"ha":799,"x_min":0,"x_max":0,"o":"m 717 0 l 717 92 l 221 92 l 221 454 l 669 454 l 669 544 l 221 544 l 221 903 l 715 903 l 715 994 l 121 994 l 121 0 z "},"É":{"ha":799,"x_min":0,"x_max":0,"o":"m 560 1235 l 460 1235 l 375 1069 l 454 1069 z m 717 0 l 717 92 l 221 92 l 221 454 l 669 454 l 669 544 l 221 544 l 221 903 l 715 903 l 715 994 l 121 994 l 121 0 z "},"Ĕ":{"ha":799,"x_min":0,"x_max":0,"o":"m 504 1236 b 411 1139 504 1175 472 1139 b 319 1236 350 1139 319 1175 l 242 1236 b 411 1064 242 1129 307 1064 b 582 1236 515 1064 582 1131 z m 717 0 l 717 92 l 221 92 l 221 454 l 669 454 l 669 544 l 221 544 l 221 903 l 715 903 l 715 994 l 121 994 l 121 0 z "},"Ě":{"ha":799,"x_min":0,"x_max":0,"o":"m 350 1069 l 471 1069 l 576 1239 l 490 1239 l 411 1117 l 331 1239 l 244 1239 z m 717 0 l 717 92 l 221 92 l 221 454 l 669 454 l 669 544 l 221 544 l 221 903 l 715 903 l 715 994 l 121 994 l 121 0 z "},"Ê":{"ha":799,"x_min":0,"x_max":0,"o":"m 331 1069 l 411 1193 l 490 1069 l 576 1069 l 471 1239 l 350 1239 l 244 1069 z m 717 0 l 717 92 l 221 92 l 221 454 l 669 454 l 669 544 l 221 544 l 221 903 l 715 903 l 715 994 l 121 994 l 121 0 z "},"Ë":{"ha":799,"x_min":0,"x_max":0,"o":"m 310 1097 b 379 1165 346 1097 379 1128 b 310 1235 379 1203 346 1235 b 242 1165 272 1235 242 1203 b 310 1097 242 1128 272 1097 z m 513 1097 b 581 1165 549 1097 581 1128 b 513 1235 581 1203 549 1235 b 444 1165 475 1235 444 1203 b 513 1097 444 1128 475 1097 z m 717 0 l 717 92 l 221 92 l 221 454 l 669 454 l 669 544 l 221 544 l 221 903 l 715 903 l 715 994 l 121 994 l 121 0 z "},"Ė":{"ha":799,"x_min":0,"x_max":0,"o":"m 411 1097 b 481 1167 449 1097 481 1129 b 411 1238 481 1204 449 1238 b 342 1167 374 1238 342 1204 b 411 1097 342 1129 372 1097 z m 717 0 l 717 92 l 221 92 l 221 454 l 669 454 l 669 544 l 221 544 l 221 903 l 715 903 l 715 994 l 121 994 l 121 0 z "},"È":{"ha":799,"x_min":0,"x_max":0,"o":"m 447 1069 l 365 1236 l 265 1236 l 368 1069 z m 717 0 l 717 92 l 221 92 l 221 454 l 669 454 l 669 544 l 221 544 l 221 903 l 715 903 l 715 994 l 121 994 l 121 0 z "},"Ē":{"ha":799,"x_min":0,"x_max":0,"o":"m 250 1147 l 572 1147 l 572 1224 l 250 1224 z m 717 0 l 717 92 l 221 92 l 221 454 l 669 454 l 669 544 l 221 544 l 221 903 l 715 903 l 715 994 l 121 994 l 121 0 z "},"Ę":{"ha":799,"x_min":0,"x_max":0,"o":"m 650 0 b 563 -115 593 -26 563 -69 b 664 -211 563 -171 603 -211 b 715 -203 683 -211 700 -208 l 715 -129 b 686 -135 704 -133 694 -135 b 638 -92 657 -135 638 -122 b 717 0 638 -61 663 -24 l 717 92 l 221 92 l 221 454 l 669 454 l 669 544 l 221 544 l 221 903 l 715 903 l 715 994 l 121 994 l 121 0 z "},"F":{"ha":754,"x_min":0,"x_max":0,"o":"m 628 438 l 628 528 l 221 528 l 221 903 l 707 903 l 707 994 l 121 994 l 121 0 l 221 0 l 221 438 z "},"G":{"ha":1042,"x_min":0,"x_max":0,"o":"m 538 917 b 842 711 683 917 800 847 l 950 711 b 539 1011 911 892 749 1011 b 60 493 254 1011 60 797 b 536 -17 60 186 254 -17 b 875 157 697 -17 822 58 l 885 -1 l 964 -1 l 964 538 l 510 538 l 510 449 l 869 449 l 869 397 b 540 78 869 158 707 78 b 164 493 317 78 164 235 b 538 917 164 747 308 917 z "},"Ğ":{"ha":1042,"x_min":0,"x_max":0,"o":"m 631 1238 b 539 1140 631 1176 600 1140 b 446 1238 478 1140 446 1176 l 368 1238 b 539 1065 368 1131 435 1065 b 708 1238 643 1065 708 1131 z m 538 917 b 842 711 683 917 800 847 l 950 711 b 539 1011 911 892 749 1011 b 60 493 254 1011 60 797 b 536 -17 60 186 254 -17 b 875 157 697 -17 822 58 l 885 -1 l 964 -1 l 964 538 l 510 538 l 510 449 l 869 449 l 869 397 b 540 78 869 158 707 78 b 164 493 317 78 164 235 b 538 917 164 747 308 917 z "},"Ĝ":{"ha":1042,"x_min":0,"x_max":0,"o":"m 458 1071 l 539 1194 l 618 1071 l 704 1071 l 599 1240 l 478 1240 l 372 1071 z m 538 917 b 842 711 683 917 800 847 l 950 711 b 539 1011 911 892 749 1011 b 60 493 254 1011 60 797 b 536 -17 60 186 254 -17 b 875 157 697 -17 822 58 l 885 -1 l 964 -1 l 964 538 l 510 538 l 510 449 l 869 449 l 869 397 b 540 78 869 158 707 78 b 164 493 317 78 164 235 b 538 917 164 747 308 917 z "},"Ģ":{"ha":1042,"x_min":0,"x_max":0,"o":"m 538 917 b 842 711 683 917 800 847 l 950 711 b 539 1011 911 892 749 1011 b 60 493 254 1011 60 797 b 536 -17 60 186 254 -17 b 875 157 697 -17 822 58 l 885 -1 l 964 -1 l 964 538 l 510 538 l 510 449 l 869 449 l 869 397 b 540 78 869 158 707 78 b 164 493 317 78 164 235 b 538 917 164 747 308 917 z m 601 -137 b 529 -50 601 -82 572 -50 b 464 -118 492 -50 464 -79 b 526 -178 464 -153 492 -178 b 547 -174 533 -178 540 -176 b 479 -229 543 -208 519 -231 l 479 -271 b 601 -137 540 -274 601 -224 z "},"Ġ":{"ha":1042,"x_min":0,"x_max":0,"o":"m 539 1099 b 608 1168 575 1099 608 1131 b 539 1239 608 1206 575 1239 b 468 1168 500 1239 468 1206 b 539 1099 468 1129 500 1099 z m 538 917 b 842 711 683 917 800 847 l 950 711 b 539 1011 911 892 749 1011 b 60 493 254 1011 60 797 b 536 -17 60 186 254 -17 b 875 157 697 -17 822 58 l 885 -1 l 964 -1 l 964 538 l 510 538 l 510 449 l 869 449 l 869 397 b 540 78 869 158 707 78 b 164 493 317 78 164 235 b 538 917 164 747 308 917 z "},"H":{"ha":979,"x_min":0,"x_max":0,"o":"m 221 0 l 221 458 l 758 458 l 758 0 l 857 0 l 857 994 l 758 994 l 758 551 l 221 551 l 221 994 l 121 994 l 121 0 z "},"Ħ":{"ha":979,"x_min":0,"x_max":0,"o":"m 221 0 l 221 458 l 758 458 l 758 0 l 857 0 l 857 757 l 976 757 l 976 844 l 857 844 l 857 994 l 758 994 l 758 844 l 221 844 l 221 994 l 121 994 l 121 844 l 6 844 l 6 757 l 121 757 l 121 0 z m 221 551 l 221 757 l 758 757 l 758 551 z "},"I":{"ha":342,"x_min":0,"x_max":0,"o":"m 221 994 l 121 994 l 121 0 l 221 0 z "},"Í":{"ha":342,"x_min":0,"x_max":0,"o":"m 319 1235 l 219 1235 l 135 1069 l 214 1069 z m 221 994 l 121 994 l 121 0 l 221 0 z "},"Î":{"ha":342,"x_min":0,"x_max":0,"o":"m 90 1069 l 171 1193 l 250 1069 l 338 1069 l 231 1239 l 110 1239 l 4 1069 z m 221 994 l 121 994 l 121 0 l 221 0 z "},"Ï":{"ha":342,"x_min":0,"x_max":0,"o":"m 69 1097 b 139 1165 107 1097 139 1128 b 69 1235 139 1203 107 1235 b 1 1165 32 1235 1 1203 b 69 1097 1 1128 32 1097 z m 272 1097 b 342 1165 308 1097 342 1128 b 272 1235 342 1203 308 1235 b 204 1165 235 1235 204 1203 b 272 1097 204 1128 235 1097 z m 221 994 l 121 994 l 121 0 l 221 0 z "},"İ":{"ha":342,"x_min":0,"x_max":0,"o":"m 171 1097 b 240 1167 208 1097 240 1129 b 171 1238 240 1204 208 1238 b 101 1167 133 1238 101 1204 b 171 1097 101 1129 132 1097 z m 221 994 l 121 994 l 121 0 l 221 0 z "},"Ì":{"ha":342,"x_min":0,"x_max":0,"o":"m 207 1069 l 125 1236 l 25 1236 l 129 1069 z m 221 994 l 121 994 l 121 0 l 221 0 z "},"Ī":{"ha":342,"x_min":0,"x_max":0,"o":"m 10 1147 l 332 1147 l 332 1224 l 10 1224 z m 221 994 l 121 994 l 121 0 l 221 0 z "},"Į":{"ha":342,"x_min":0,"x_max":0,"o":"m 154 0 b 67 -115 97 -26 67 -69 b 168 -211 67 -171 107 -211 b 219 -203 188 -211 204 -208 l 219 -129 b 190 -135 208 -133 199 -135 b 142 -92 161 -135 142 -122 b 221 0 142 -61 167 -24 l 221 994 l 121 994 l 121 0 z "},"Ĩ":{"ha":342,"x_min":0,"x_max":0,"o":"m 46 1093 b 90 1168 46 1142 63 1168 b 254 1093 138 1168 174 1093 b 364 1240 328 1093 367 1144 l 294 1240 b 249 1165 294 1190 281 1165 b 79 1240 192 1165 156 1240 b -22 1093 11 1240 -28 1185 z m 221 994 l 121 994 l 121 0 l 221 0 z "},"J":{"ha":708,"x_min":0,"x_max":0,"o":"m 28 274 b 310 -17 28 101 131 -17 b 594 272 478 -17 594 92 l 594 994 l 494 994 l 494 275 b 310 78 494 157 436 78 b 125 274 189 78 125 156 l 125 313 l 28 313 z "},"Ĵ":{"ha":708,"x_min":0,"x_max":0,"o":"m 464 1071 l 544 1194 l 624 1071 l 710 1071 l 604 1240 l 483 1240 l 378 1071 z m 28 274 b 310 -17 28 101 131 -17 b 594 272 478 -17 594 92 l 594 994 l 494 994 l 494 275 b 310 78 494 157 436 78 b 125 274 189 78 125 156 l 125 313 l 28 313 z "},"K":{"ha":856,"x_min":0,"x_max":0,"o":"m 221 994 l 121 994 l 121 0 l 221 0 l 221 247 l 417 490 l 708 0 l 825 0 l 482 574 l 819 994 l 700 994 l 221 396 z "},"Ķ":{"ha":856,"x_min":0,"x_max":0,"o":"m 221 994 l 121 994 l 121 0 l 221 0 l 221 247 l 417 490 l 708 0 l 825 0 l 482 574 l 819 994 l 700 994 l 221 396 z m 529 -137 b 457 -50 529 -82 500 -50 b 392 -118 421 -50 392 -79 b 454 -178 392 -153 419 -178 b 475 -174 461 -178 468 -176 b 407 -229 471 -208 447 -231 l 407 -271 b 529 -137 468 -274 529 -224 z "},"L":{"ha":707,"x_min":0,"x_max":0,"o":"m 221 994 l 121 994 l 121 0 l 678 0 l 678 92 l 221 92 z "},"Ĺ":{"ha":707,"x_min":0,"x_max":0,"o":"m 319 1229 l 219 1229 l 135 1064 l 214 1064 z m 221 994 l 121 994 l 121 0 l 678 0 l 678 92 l 221 92 z "},"Ľ":{"ha":707,"x_min":0,"x_max":0,"o":"m 221 994 l 121 994 l 121 0 l 678 0 l 678 92 l 221 92 z m 297 779 l 364 779 l 388 994 l 297 994 z "},"Ļ":{"ha":707,"x_min":0,"x_max":0,"o":"m 221 994 l 121 994 l 121 0 l 678 0 l 678 92 l 221 92 z m 453 -137 b 381 -50 453 -82 424 -50 b 315 -118 344 -50 315 -79 b 378 -178 315 -153 343 -178 b 399 -174 385 -178 392 -176 b 331 -229 394 -208 371 -231 l 331 -271 b 453 -137 392 -274 453 -224 z "},"Ŀ":{"ha":707,"x_min":0,"x_max":0,"o":"m 221 994 l 121 994 l 121 0 l 678 0 l 678 92 l 221 92 z m 428 442 b 493 506 463 442 493 471 b 428 572 493 542 463 572 b 363 506 392 572 363 543 b 428 442 363 471 393 442 z "},"Ł":{"ha":707,"x_min":0,"x_max":0,"o":"m 22 364 l 121 411 l 121 0 l 678 0 l 678 92 l 221 92 l 221 458 l 490 588 l 490 676 l 221 547 l 221 994 l 121 994 l 121 500 l 22 453 z "},"M":{"ha":1165,"x_min":0,"x_max":0,"o":"m 219 0 l 219 488 b 211 786 219 639 217 749 l 535 0 l 631 0 l 954 790 b 946 472 949 722 946 646 l 946 0 l 1044 0 l 1044 994 l 944 994 l 582 118 l 219 994 l 121 994 l 121 0 z "},"N":{"ha":990,"x_min":0,"x_max":0,"o":"m 221 0 l 221 828 l 769 0 l 868 0 l 868 994 l 769 994 l 769 167 l 222 994 l 121 994 l 121 0 z "},"Ń":{"ha":990,"x_min":0,"x_max":0,"o":"m 644 1235 l 544 1235 l 461 1069 l 539 1069 z m 221 0 l 221 828 l 769 0 l 868 0 l 868 994 l 769 994 l 769 167 l 222 994 l 121 994 l 121 0 z "},"Ň":{"ha":990,"x_min":0,"x_max":0,"o":"m 436 1069 l 557 1069 l 663 1239 l 576 1239 l 497 1117 l 417 1239 l 331 1239 z m 221 0 l 221 828 l 769 0 l 868 0 l 868 994 l 769 994 l 769 167 l 222 994 l 121 994 l 121 0 z "},"Ņ":{"ha":990,"x_min":0,"x_max":0,"o":"m 221 0 l 221 828 l 769 0 l 868 0 l 868 994 l 769 994 l 769 167 l 222 994 l 121 994 l 121 0 z m 568 -137 b 497 -50 568 -82 540 -50 b 432 -118 460 -50 432 -79 b 493 -178 432 -153 460 -178 b 515 -174 501 -178 508 -176 b 447 -229 511 -208 488 -231 l 447 -271 b 568 -137 508 -274 568 -224 z "},"Ŋ":{"ha":990,"x_min":0,"x_max":0,"o":"m 685 -307 b 868 -101 801 -307 868 -229 l 868 994 l 769 994 l 769 167 l 222 994 l 121 994 l 121 0 l 221 0 l 221 829 l 774 -6 l 774 -96 b 675 -217 774 -178 742 -217 b 594 -203 656 -217 625 -211 l 576 -292 b 685 -307 613 -303 647 -307 z "},"Ñ":{"ha":990,"x_min":0,"x_max":0,"o":"m 372 1093 b 417 1168 372 1142 388 1168 b 579 1093 464 1168 500 1093 b 689 1240 653 1093 693 1144 l 621 1240 b 574 1165 621 1190 607 1165 b 404 1240 517 1165 481 1240 b 303 1093 338 1240 297 1185 z m 221 0 l 221 828 l 769 0 l 868 0 l 868 994 l 769 994 l 769 167 l 222 994 l 121 994 l 121 0 z "},"O":{"ha":1068,"x_min":0,"x_max":0,"o":"m 1007 497 b 533 1013 1007 800 813 1013 b 60 497 256 1013 60 799 b 533 -17 60 196 254 -17 b 1007 497 811 -17 1007 196 z m 904 497 b 533 79 904 250 753 79 b 164 497 314 79 164 249 b 533 915 164 746 314 915 b 904 497 753 915 904 746 z "},"Ó":{"ha":1068,"x_min":0,"x_max":0,"o":"m 682 1235 l 581 1235 l 497 1069 l 576 1069 z m 1007 497 b 533 1013 1007 800 813 1013 b 60 497 256 1013 60 799 b 533 -17 60 196 254 -17 b 1007 497 811 -17 1007 196 z m 904 497 b 533 79 904 250 753 79 b 164 497 314 79 164 249 b 533 915 164 746 314 915 b 904 497 753 915 904 746 z "},"Ô":{"ha":1068,"x_min":0,"x_max":0,"o":"m 453 1069 l 533 1193 l 613 1069 l 699 1069 l 593 1239 l 472 1239 l 367 1069 z m 1007 497 b 533 1013 1007 800 813 1013 b 60 497 256 1013 60 799 b 533 -17 60 196 254 -17 b 1007 497 811 -17 1007 196 z m 904 497 b 533 79 904 250 753 79 b 164 497 314 79 164 249 b 533 915 164 746 314 915 b 904 497 753 915 904 746 z "},"Ö":{"ha":1068,"x_min":0,"x_max":0,"o":"m 432 1097 b 500 1165 468 1097 500 1128 b 432 1235 500 1203 468 1235 b 364 1165 394 1235 364 1203 b 432 1097 364 1128 394 1097 z m 635 1097 b 703 1165 671 1097 703 1128 b 635 1235 703 1203 671 1235 b 567 1165 597 1235 567 1203 b 635 1097 567 1128 597 1097 z m 1007 497 b 533 1013 1007 800 813 1013 b 60 497 256 1013 60 799 b 533 -17 60 196 254 -17 b 1007 497 811 -17 1007 196 z m 904 497 b 533 79 904 250 753 79 b 164 497 314 79 164 249 b 533 915 164 746 314 915 b 904 497 753 915 904 746 z "},"Ò":{"ha":1068,"x_min":0,"x_max":0,"o":"m 569 1069 l 488 1236 l 388 1236 l 490 1069 z m 1007 497 b 533 1013 1007 800 813 1013 b 60 497 256 1013 60 799 b 533 -17 60 196 254 -17 b 1007 497 811 -17 1007 196 z m 904 497 b 533 79 904 250 753 79 b 164 497 314 79 164 249 b 533 915 164 746 314 915 b 904 497 753 915 904 746 z "},"Ő":{"ha":1068,"x_min":0,"x_max":0,"o":"m 603 1235 l 508 1235 l 425 1069 l 500 1069 z m 768 1235 l 669 1235 l 568 1069 l 644 1069 z m 1007 497 b 533 1013 1007 800 813 1013 b 60 497 256 1013 60 799 b 533 -17 60 196 254 -17 b 1007 497 811 -17 1007 196 z m 904 497 b 533 79 904 250 753 79 b 164 497 314 79 164 249 b 533 915 164 746 314 915 b 904 497 753 915 904 746 z "},"Ō":{"ha":1068,"x_min":0,"x_max":0,"o":"m 372 1147 l 694 1147 l 694 1224 l 372 1224 z m 1007 497 b 533 1013 1007 800 813 1013 b 60 497 256 1013 60 799 b 533 -17 60 196 254 -17 b 1007 497 811 -17 1007 196 z m 904 497 b 533 79 904 250 753 79 b 164 497 314 79 164 249 b 533 915 164 746 314 915 b 904 497 753 915 904 746 z "},"Ø":{"ha":1068,"x_min":0,"x_max":0,"o":"m 1007 497 b 871 874 1007 651 957 782 l 964 996 l 865 996 l 811 925 b 533 1013 735 981 640 1013 b 60 497 256 1013 60 799 b 197 122 60 343 110 213 l 104 0 l 204 0 l 257 69 b 533 -17 333 14 426 -17 b 1007 497 811 -17 1007 196 z m 164 497 b 533 915 164 746 314 915 b 750 846 617 915 692 890 l 260 203 b 164 497 199 276 164 378 z m 904 497 b 533 79 904 250 753 79 b 317 149 450 79 376 104 l 808 792 b 904 497 869 718 904 617 z "},"Ǿ":{"ha":1068,"x_min":0,"x_max":0,"o":"m 679 1231 l 579 1231 l 494 1065 l 574 1065 z m 1007 497 b 871 874 1007 651 957 782 l 964 996 l 865 996 l 811 925 b 533 1013 735 981 640 1013 b 60 497 256 1013 60 799 b 197 122 60 343 110 213 l 104 0 l 204 0 l 257 69 b 533 -17 333 14 426 -17 b 1007 497 811 -17 1007 196 z m 164 497 b 533 915 164 746 314 915 b 750 846 617 915 692 890 l 260 203 b 164 497 199 276 164 378 z m 904 497 b 533 79 904 250 753 79 b 317 149 450 79 376 104 l 808 792 b 904 497 869 718 904 617 z "},"Õ":{"ha":1068,"x_min":0,"x_max":0,"o":"m 408 1093 b 453 1168 408 1142 425 1168 b 617 1093 500 1168 536 1093 b 726 1240 690 1093 729 1144 l 657 1240 b 610 1165 657 1190 643 1165 b 442 1240 554 1165 518 1240 b 340 1093 374 1240 333 1185 z m 1007 497 b 533 1013 1007 800 813 1013 b 60 497 256 1013 60 799 b 533 -17 60 196 254 -17 b 1007 497 811 -17 1007 196 z m 904 497 b 533 79 904 250 753 79 b 164 497 314 79 164 249 b 533 915 164 746 314 915 b 904 497 753 915 904 746 z "},"Œ":{"ha":1603,"x_min":0,"x_max":0,"o":"m 60 500 b 543 -17 60 201 260 -17 b 926 196 714 -17 863 65 l 926 0 l 1521 0 l 1521 92 l 1026 92 l 1026 454 l 1474 454 l 1474 544 l 1026 544 l 1026 903 l 1521 903 l 1521 994 l 926 994 l 926 808 b 540 1013 857 933 704 1013 b 60 500 260 1013 60 796 z m 164 501 b 544 917 164 747 324 917 b 926 499 767 917 926 747 b 546 79 926 250 768 79 b 164 501 325 79 164 253 z "},"P":{"ha":853,"x_min":0,"x_max":0,"o":"m 500 365 b 813 682 690 365 813 501 b 500 994 813 869 692 994 l 121 994 l 121 0 l 221 0 l 221 365 z m 486 904 b 708 683 624 904 708 821 b 481 456 708 547 625 456 l 221 456 l 221 904 z "},"Þ":{"ha":853,"x_min":0,"x_max":0,"o":"m 500 200 b 813 503 690 200 813 336 b 500 803 813 678 692 803 l 221 803 l 221 994 l 121 994 l 121 0 l 221 0 l 221 200 z m 486 713 b 708 506 624 713 708 629 b 481 290 708 383 625 290 l 221 290 l 221 713 z "},"Q":{"ha":1068,"x_min":0,"x_max":0,"o":"m 906 -57 l 974 6 l 869 122 b 1007 497 956 213 1007 343 b 533 1013 1007 800 813 1013 b 60 497 256 1013 60 799 b 533 -17 60 196 254 -17 b 800 63 635 -17 725 11 z m 904 497 b 803 197 904 375 867 271 l 671 344 l 604 282 l 733 136 b 533 79 678 100 610 79 b 164 497 314 79 164 249 b 533 915 164 746 314 915 b 904 497 753 915 904 746 z "},"R":{"ha":889,"x_min":0,"x_max":0,"o":"m 221 0 l 221 413 l 511 413 l 714 0 l 825 0 l 613 429 b 815 707 740 464 815 564 b 492 994 815 883 693 994 l 121 994 l 121 0 z m 221 904 l 492 904 b 713 704 628 904 713 833 b 494 503 713 578 632 503 l 221 503 z "},"Ŕ":{"ha":889,"x_min":0,"x_max":0,"o":"m 574 1236 l 472 1236 l 389 1071 l 467 1071 z m 221 0 l 221 413 l 511 413 l 714 0 l 825 0 l 613 429 b 815 707 740 464 815 564 b 492 994 815 883 693 994 l 121 994 l 121 0 z m 221 904 l 492 904 b 713 704 628 904 713 833 b 494 503 713 578 632 503 l 221 503 z "},"Ř":{"ha":889,"x_min":0,"x_max":0,"o":"m 364 1071 l 485 1071 l 590 1240 l 504 1240 l 425 1117 l 344 1240 l 258 1240 z m 221 0 l 221 413 l 511 413 l 714 0 l 825 0 l 613 429 b 815 707 740 464 815 564 b 492 994 815 883 693 994 l 121 994 l 121 0 z m 221 904 l 492 904 b 713 704 628 904 713 833 b 494 503 713 578 632 503 l 221 503 z "},"Ŗ":{"ha":889,"x_min":0,"x_max":0,"o":"m 221 0 l 221 413 l 511 413 l 714 0 l 825 0 l 613 429 b 815 707 740 464 815 564 b 492 994 815 883 693 994 l 121 994 l 121 0 z m 221 904 l 492 904 b 713 704 628 904 713 833 b 494 503 713 578 632 503 l 221 503 z m 533 -137 b 463 -50 533 -82 506 -50 b 397 -118 425 -50 397 -79 b 458 -178 397 -153 425 -178 b 479 -175 465 -178 472 -176 b 413 -229 476 -210 453 -231 l 413 -271 b 533 -137 474 -274 533 -224 z "},"S":{"ha":782,"x_min":0,"x_max":0,"o":"m 61 736 b 299 474 61 600 143 511 l 467 432 b 624 260 574 407 624 349 b 385 75 624 146 531 75 b 151 247 249 75 157 143 l 49 247 b 385 -17 61 85 192 -17 b 724 265 590 -17 724 93 b 488 526 724 400 643 489 l 317 568 b 161 738 213 594 161 650 b 393 922 161 850 253 922 b 606 746 518 922 594 858 l 707 746 b 394 1013 692 913 574 1013 b 61 736 194 1013 61 903 z "},"Ś":{"ha":782,"x_min":0,"x_max":0,"o":"m 538 1235 l 436 1235 l 353 1069 l 431 1069 z m 61 736 b 299 474 61 600 143 511 l 467 432 b 624 260 574 407 624 349 b 385 75 624 146 531 75 b 151 247 249 75 157 143 l 49 247 b 385 -17 61 85 192 -17 b 724 265 590 -17 724 93 b 488 526 724 400 643 489 l 317 568 b 161 738 213 594 161 650 b 393 922 161 850 253 922 b 606 746 518 922 594 858 l 707 746 b 394 1013 692 913 574 1013 b 61 736 194 1013 61 903 z "},"Š":{"ha":782,"x_min":0,"x_max":0,"o":"m 328 1069 l 449 1069 l 554 1239 l 468 1239 l 389 1117 l 308 1239 l 222 1239 z m 61 736 b 299 474 61 600 143 511 l 467 432 b 624 260 574 407 624 349 b 385 75 624 146 531 75 b 151 247 249 75 157 143 l 49 247 b 385 -17 61 85 192 -17 b 724 265 590 -17 724 93 b 488 526 724 400 643 489 l 317 568 b 161 738 213 594 161 650 b 393 922 161 850 253 922 b 606 746 518 922 594 858 l 707 746 b 394 1013 692 913 574 1013 b 61 736 194 1013 61 903 z "},"Ş":{"ha":782,"x_min":0,"x_max":0,"o":"m 308 -233 b 394 -254 332 -249 360 -254 b 518 -147 460 -254 518 -219 b 422 -56 518 -87 475 -56 b 382 -62 408 -56 396 -58 l 403 -17 b 724 265 599 -10 724 99 b 488 526 724 400 643 489 l 317 568 b 161 738 213 594 161 650 b 393 922 161 850 253 922 b 606 746 518 922 594 858 l 707 746 b 394 1013 692 913 574 1013 b 61 736 194 1013 61 903 b 299 474 61 600 143 511 l 467 432 b 624 260 574 407 624 349 b 385 75 624 146 531 75 b 151 247 249 75 157 143 l 49 247 b 349 -15 60 96 175 -3 l 315 -86 l 328 -121 b 396 -104 356 -108 371 -104 b 451 -150 429 -104 451 -119 b 388 -197 451 -181 424 -197 b 308 -175 358 -197 335 -189 z "},"Ŝ":{"ha":782,"x_min":0,"x_max":0,"o":"m 308 1069 l 389 1193 l 468 1069 l 554 1069 l 449 1239 l 328 1239 l 222 1069 z m 61 736 b 299 474 61 600 143 511 l 467 432 b 624 260 574 407 624 349 b 385 75 624 146 531 75 b 151 247 249 75 157 143 l 49 247 b 385 -17 61 85 192 -17 b 724 265 590 -17 724 93 b 488 526 724 400 643 489 l 317 568 b 161 738 213 594 161 650 b 393 922 161 850 253 922 b 606 746 518 922 594 858 l 707 746 b 394 1013 692 913 574 1013 b 61 736 194 1013 61 903 z "},"Ș":{"ha":782,"x_min":0,"x_max":0,"o":"m 61 736 b 299 474 61 600 143 511 l 467 432 b 624 260 574 407 624 349 b 385 75 624 146 531 75 b 151 247 249 75 157 143 l 49 247 b 385 -17 61 85 192 -17 b 724 265 590 -17 724 93 b 488 526 724 400 643 489 l 317 568 b 161 738 213 594 161 650 b 393 922 161 850 253 922 b 606 746 518 922 594 858 l 707 746 b 394 1013 692 913 574 1013 b 61 736 194 1013 61 903 z m 450 -137 b 379 -50 450 -82 422 -50 b 314 -118 342 -50 314 -79 b 375 -178 314 -153 342 -178 b 396 -175 382 -178 389 -176 b 329 -229 393 -210 369 -231 l 329 -271 b 450 -137 390 -274 450 -224 z "},"T":{"ha":746,"x_min":0,"x_max":0,"o":"m 17 903 l 322 903 l 322 0 l 422 0 l 422 903 l 729 903 l 729 994 l 17 994 z "},"Ŧ":{"ha":746,"x_min":0,"x_max":0,"o":"m 168 514 l 322 514 l 322 0 l 422 0 l 422 514 l 578 514 l 578 600 l 422 600 l 422 903 l 729 903 l 729 994 l 17 994 l 17 903 l 322 903 l 322 600 l 168 600 z "},"Ť":{"ha":746,"x_min":0,"x_max":0,"o":"m 311 1069 l 433 1069 l 539 1239 l 451 1239 l 372 1117 l 293 1239 l 206 1239 z m 17 903 l 322 903 l 322 0 l 422 0 l 422 903 l 729 903 l 729 994 l 17 994 z "},"Ţ":{"ha":746,"x_min":0,"x_max":0,"o":"m 297 -233 b 383 -254 321 -249 349 -254 b 507 -147 449 -254 507 -219 b 411 -56 507 -87 464 -56 b 371 -62 397 -56 385 -58 l 400 0 l 422 0 l 422 903 l 729 903 l 729 994 l 17 994 l 17 903 l 322 903 l 322 0 l 344 0 l 304 -86 l 317 -121 b 385 -104 344 -108 358 -104 b 440 -150 418 -104 440 -119 b 375 -197 440 -181 413 -197 b 297 -175 347 -197 324 -189 z "},"Ț":{"ha":746,"x_min":0,"x_max":0,"o":"m 17 903 l 322 903 l 322 0 l 422 0 l 422 903 l 729 903 l 729 994 l 17 994 z m 439 -137 b 368 -50 439 -82 411 -50 b 303 -118 331 -50 303 -79 b 364 -178 303 -153 331 -178 b 385 -175 371 -178 378 -176 b 318 -229 382 -210 358 -231 l 318 -271 b 439 -137 378 -274 439 -224 z "},"U":{"ha":963,"x_min":0,"x_max":0,"o":"m 114 346 b 483 -17 114 119 253 -17 b 849 346 710 -17 849 121 l 849 994 l 749 994 l 749 350 b 483 81 749 178 653 81 b 214 350 310 81 214 175 l 214 994 l 114 994 z "},"Ú":{"ha":963,"x_min":0,"x_max":0,"o":"m 631 1235 l 529 1235 l 446 1069 l 524 1069 z m 114 346 b 483 -17 114 119 253 -17 b 849 346 710 -17 849 121 l 849 994 l 749 994 l 749 350 b 483 81 749 178 653 81 b 214 350 310 81 214 175 l 214 994 l 114 994 z "},"Û":{"ha":963,"x_min":0,"x_max":0,"o":"m 401 1069 l 482 1193 l 561 1069 l 647 1069 l 542 1239 l 421 1239 l 315 1069 z m 114 346 b 483 -17 114 119 253 -17 b 849 346 710 -17 849 121 l 849 994 l 749 994 l 749 350 b 483 81 749 178 653 81 b 214 350 310 81 214 175 l 214 994 l 114 994 z "},"Ü":{"ha":963,"x_min":0,"x_max":0,"o":"m 381 1097 b 449 1165 417 1097 449 1128 b 381 1235 449 1203 417 1235 b 313 1165 343 1235 313 1203 b 381 1097 313 1128 343 1097 z m 583 1097 b 651 1165 619 1097 651 1128 b 583 1235 651 1203 619 1235 b 515 1165 546 1235 515 1203 b 583 1097 515 1128 546 1097 z m 114 346 b 483 -17 114 119 253 -17 b 849 346 710 -17 849 121 l 849 994 l 749 994 l 749 350 b 483 81 749 178 653 81 b 214 350 310 81 214 175 l 214 994 l 114 994 z "},"Ù":{"ha":963,"x_min":0,"x_max":0,"o":"m 518 1069 l 436 1236 l 336 1236 l 439 1069 z m 114 346 b 483 -17 114 119 253 -17 b 849 346 710 -17 849 121 l 849 994 l 749 994 l 749 350 b 483 81 749 178 653 81 b 214 350 310 81 214 175 l 214 994 l 114 994 z "},"Ű":{"ha":963,"x_min":0,"x_max":0,"o":"m 551 1235 l 457 1235 l 374 1069 l 449 1069 z m 717 1235 l 618 1235 l 517 1069 l 593 1069 z m 114 346 b 483 -17 114 119 253 -17 b 849 346 710 -17 849 121 l 849 994 l 749 994 l 749 350 b 483 81 749 178 653 81 b 214 350 310 81 214 175 l 214 994 l 114 994 z "},"Ū":{"ha":963,"x_min":0,"x_max":0,"o":"m 321 1147 l 643 1147 l 643 1224 l 321 1224 z m 114 346 b 483 -17 114 119 253 -17 b 849 346 710 -17 849 121 l 849 994 l 749 994 l 749 350 b 483 81 749 178 653 81 b 214 350 310 81 214 175 l 214 994 l 114 994 z "},"Ų":{"ha":963,"x_min":0,"x_max":0,"o":"m 114 346 b 483 -17 114 119 253 -17 b 513 -15 493 -17 503 -17 b 454 -115 475 -42 454 -78 b 556 -211 454 -171 494 -211 b 606 -203 574 -211 590 -208 l 606 -129 b 576 -135 594 -133 586 -135 b 529 -92 549 -135 529 -122 b 606 -1 529 -61 551 -25 b 849 346 758 40 849 164 l 849 994 l 749 994 l 749 350 b 483 81 749 178 653 81 b 214 350 310 81 214 175 l 214 994 l 114 994 z "},"Ů":{"ha":963,"x_min":0,"x_max":0,"o":"m 482 1065 b 632 1217 567 1065 632 1132 b 482 1365 632 1300 567 1365 b 332 1217 397 1365 332 1301 b 482 1065 332 1129 394 1065 z m 482 1132 b 403 1217 435 1132 403 1167 b 482 1301 403 1267 436 1301 b 561 1217 528 1301 561 1265 b 482 1132 561 1167 529 1132 z m 114 346 b 483 -17 114 119 253 -17 b 849 346 710 -17 849 121 l 849 994 l 749 994 l 749 350 b 483 81 749 178 653 81 b 214 350 310 81 214 175 l 214 994 l 114 994 z "},"Ũ":{"ha":963,"x_min":0,"x_max":0,"o":"m 357 1093 b 401 1168 357 1142 374 1168 b 565 1093 449 1168 485 1093 b 675 1240 639 1093 678 1144 l 606 1240 b 558 1165 606 1190 592 1165 b 390 1240 503 1165 467 1240 b 289 1093 322 1240 282 1185 z m 114 346 b 483 -17 114 119 253 -17 b 849 346 710 -17 849 121 l 849 994 l 749 994 l 749 350 b 483 81 749 178 653 81 b 214 350 310 81 214 175 l 214 994 l 114 994 z "},"V":{"ha":890,"x_min":0,"x_max":0,"o":"m 394 0 l 499 0 l 876 994 l 774 994 l 510 304 b 449 125 494 267 469 197 b 386 303 426 194 407 249 l 121 994 l 14 994 z "},"W":{"ha":1360,"x_min":0,"x_max":0,"o":"m 317 0 l 413 0 l 679 844 l 946 0 l 1040 0 l 1339 994 l 1238 994 l 1032 310 b 993 147 1021 272 1008 224 b 949 311 978 211 964 261 l 732 994 l 628 994 l 411 311 b 365 147 396 263 382 219 b 326 311 353 213 340 263 l 125 994 l 21 994 z "},"Ẃ":{"ha":1360,"x_min":0,"x_max":0,"o":"m 828 1235 l 728 1235 l 643 1069 l 722 1069 z m 317 0 l 413 0 l 679 844 l 946 0 l 1040 0 l 1339 994 l 1238 994 l 1032 310 b 993 147 1021 272 1008 224 b 949 311 978 211 964 261 l 732 994 l 628 994 l 411 311 b 365 147 396 263 382 219 b 326 311 353 213 340 263 l 125 994 l 21 994 z "},"Ŵ":{"ha":1360,"x_min":0,"x_max":0,"o":"m 599 1069 l 679 1193 l 758 1069 l 844 1069 l 739 1239 l 618 1239 l 513 1069 z m 317 0 l 413 0 l 679 844 l 946 0 l 1040 0 l 1339 994 l 1238 994 l 1032 310 b 993 147 1021 272 1008 224 b 949 311 978 211 964 261 l 732 994 l 628 994 l 411 311 b 365 147 396 263 382 219 b 326 311 353 213 340 263 l 125 994 l 21 994 z "},"Ẅ":{"ha":1360,"x_min":0,"x_max":0,"o":"m 578 1097 b 647 1165 614 1097 647 1128 b 578 1235 647 1203 614 1235 b 510 1165 540 1235 510 1203 b 578 1097 510 1128 540 1097 z m 781 1097 b 849 1165 817 1097 849 1128 b 781 1235 849 1203 817 1235 b 713 1165 743 1235 713 1203 b 781 1097 713 1128 743 1097 z m 317 0 l 413 0 l 679 844 l 946 0 l 1040 0 l 1339 994 l 1238 994 l 1032 310 b 993 147 1021 272 1008 224 b 949 311 978 211 964 261 l 732 994 l 628 994 l 411 311 b 365 147 396 263 382 219 b 326 311 353 213 340 263 l 125 994 l 21 994 z "},"Ẁ":{"ha":1360,"x_min":0,"x_max":0,"o":"m 715 1069 l 633 1236 l 533 1236 l 636 1069 z m 317 0 l 413 0 l 679 844 l 946 0 l 1040 0 l 1339 994 l 1238 994 l 1032 310 b 993 147 1021 272 1008 224 b 949 311 978 211 964 261 l 732 994 l 628 994 l 411 311 b 365 147 396 263 382 219 b 326 311 353 213 340 263 l 125 994 l 21 994 z "},"X":{"ha":850,"x_min":0,"x_max":0,"o":"m 367 496 l 21 0 l 138 0 l 428 419 b 526 267 453 375 493 314 l 715 0 l 835 0 l 488 499 l 829 994 l 714 994 l 425 569 b 322 733 401 614 369 667 l 138 994 l 19 994 z "},"Y":{"ha":799,"x_min":0,"x_max":0,"o":"m 351 415 l 351 0 l 451 0 l 451 415 l 785 994 l 675 994 l 432 565 b 401 506 414 531 414 531 b 372 565 392 528 383 544 l 126 994 l 14 994 z "},"Ý":{"ha":799,"x_min":0,"x_max":0,"o":"m 549 1235 l 449 1235 l 365 1069 l 443 1069 z m 351 415 l 351 0 l 451 0 l 451 415 l 785 994 l 675 994 l 432 565 b 401 506 414 531 414 531 b 372 565 392 528 383 544 l 126 994 l 14 994 z "},"Ŷ":{"ha":799,"x_min":0,"x_max":0,"o":"m 321 1069 l 400 1193 l 479 1069 l 567 1069 l 461 1239 l 340 1239 l 233 1069 z m 351 415 l 351 0 l 451 0 l 451 415 l 785 994 l 675 994 l 432 565 b 401 506 414 531 414 531 b 372 565 392 528 383 544 l 126 994 l 14 994 z "},"Ÿ":{"ha":799,"x_min":0,"x_max":0,"o":"m 300 1097 b 368 1165 336 1097 368 1128 b 300 1235 368 1203 336 1235 b 231 1165 263 1235 231 1203 b 300 1097 231 1128 261 1097 z m 501 1097 b 571 1165 539 1097 571 1128 b 501 1235 571 1203 539 1235 b 433 1165 464 1235 433 1203 b 501 1097 433 1128 464 1097 z m 351 415 l 351 0 l 451 0 l 451 415 l 785 994 l 675 994 l 432 565 b 401 506 414 531 414 531 b 372 565 392 528 383 544 l 126 994 l 14 994 z "},"Ỳ":{"ha":799,"x_min":0,"x_max":0,"o":"m 436 1069 l 356 1236 l 254 1236 l 358 1069 z m 351 415 l 351 0 l 451 0 l 451 415 l 785 994 l 675 994 l 432 565 b 401 506 414 531 414 531 b 372 565 392 528 383 544 l 126 994 l 14 994 z "},"Z":{"ha":806,"x_min":0,"x_max":0,"o":"m 749 0 l 749 92 l 176 92 l 751 906 l 751 994 l 61 994 l 61 903 l 629 903 l 57 92 l 57 0 z "},"Ź":{"ha":806,"x_min":0,"x_max":0,"o":"m 542 1235 l 440 1235 l 357 1069 l 436 1069 z m 749 0 l 749 92 l 176 92 l 751 906 l 751 994 l 61 994 l 61 903 l 629 903 l 57 92 l 57 0 z "},"Ž":{"ha":806,"x_min":0,"x_max":0,"o":"m 332 1069 l 453 1069 l 558 1239 l 472 1239 l 393 1117 l 313 1239 l 226 1239 z m 749 0 l 749 92 l 176 92 l 751 906 l 751 994 l 61 994 l 61 903 l 629 903 l 57 92 l 57 0 z "},"Ż":{"ha":806,"x_min":0,"x_max":0,"o":"m 393 1097 b 463 1167 431 1097 463 1129 b 393 1238 463 1204 431 1238 b 324 1167 354 1238 324 1204 b 393 1097 324 1129 354 1097 z m 749 0 l 749 92 l 176 92 l 751 906 l 751 994 l 61 994 l 61 903 l 629 903 l 57 92 l 57 0 z "},"a":{"ha":725,"x_min":0,"x_max":0,"o":"m 293 -17 b 540 118 407 -17 499 33 l 553 0 l 633 0 l 633 435 b 364 690 633 613 519 690 b 88 467 199 690 88 603 l 175 467 b 361 610 175 557 244 610 b 539 436 460 610 539 568 l 539 414 l 317 396 b 65 182 160 383 65 306 b 293 -17 65 64 150 -17 z m 315 61 b 163 185 224 61 163 103 b 340 326 163 260 214 315 l 539 342 l 539 306 b 315 61 539 160 457 61 z "},"á":{"ha":725,"x_min":0,"x_max":0,"o":"m 517 915 l 417 915 l 333 750 l 411 750 z m 293 -17 b 540 118 407 -17 499 33 l 553 0 l 633 0 l 633 435 b 364 690 633 613 519 690 b 88 467 199 690 88 603 l 175 467 b 361 610 175 557 244 610 b 539 436 460 610 539 568 l 539 414 l 317 396 b 65 182 160 383 65 306 b 293 -17 65 64 150 -17 z m 315 61 b 163 185 224 61 163 103 b 340 326 163 260 214 315 l 539 342 l 539 306 b 315 61 539 160 457 61 z "},"ă":{"ha":725,"x_min":0,"x_max":0,"o":"m 461 917 b 369 819 461 856 431 819 b 276 917 308 819 276 856 l 199 917 b 369 744 199 810 265 744 b 539 917 474 744 539 811 z m 293 -17 b 540 118 407 -17 499 33 l 553 0 l 633 0 l 633 435 b 364 690 633 613 519 690 b 88 467 199 690 88 603 l 175 467 b 361 610 175 557 244 610 b 539 436 460 610 539 568 l 539 414 l 317 396 b 65 182 160 383 65 306 b 293 -17 65 64 150 -17 z m 315 61 b 163 185 224 61 163 103 b 340 326 163 260 214 315 l 539 342 l 539 306 b 315 61 539 160 457 61 z "},"â":{"ha":725,"x_min":0,"x_max":0,"o":"m 289 750 l 369 874 l 449 750 l 535 750 l 429 919 l 308 919 l 203 750 z m 293 -17 b 540 118 407 -17 499 33 l 553 0 l 633 0 l 633 435 b 364 690 633 613 519 690 b 88 467 199 690 88 603 l 175 467 b 361 610 175 557 244 610 b 539 436 460 610 539 568 l 539 414 l 317 396 b 65 182 160 383 65 306 b 293 -17 65 64 150 -17 z m 315 61 b 163 185 224 61 163 103 b 340 326 163 260 214 315 l 539 342 l 539 306 b 315 61 539 160 457 61 z "},"ä":{"ha":725,"x_min":0,"x_max":0,"o":"m 268 778 b 336 846 304 778 336 808 b 268 915 336 883 304 915 b 199 846 231 915 199 883 b 268 778 199 808 231 778 z m 471 778 b 539 846 507 778 539 808 b 471 915 539 883 507 915 b 401 846 433 915 401 883 b 471 778 401 808 432 778 z m 293 -17 b 540 118 407 -17 499 33 l 553 0 l 633 0 l 633 435 b 364 690 633 613 519 690 b 88 467 199 690 88 603 l 175 467 b 361 610 175 557 244 610 b 539 436 460 610 539 568 l 539 414 l 317 396 b 65 182 160 383 65 306 b 293 -17 65 64 150 -17 z m 315 61 b 163 185 224 61 163 103 b 340 326 163 260 214 315 l 539 342 l 539 306 b 315 61 539 160 457 61 z "},"à":{"ha":725,"x_min":0,"x_max":0,"o":"m 404 750 l 324 917 l 222 917 l 326 750 z m 293 -17 b 540 118 407 -17 499 33 l 553 0 l 633 0 l 633 435 b 364 690 633 613 519 690 b 88 467 199 690 88 603 l 175 467 b 361 610 175 557 244 610 b 539 436 460 610 539 568 l 539 414 l 317 396 b 65 182 160 383 65 306 b 293 -17 65 64 150 -17 z m 315 61 b 163 185 224 61 163 103 b 340 326 163 260 214 315 l 539 342 l 539 306 b 315 61 539 160 457 61 z "},"ā":{"ha":725,"x_min":0,"x_max":0,"o":"m 208 828 l 529 828 l 529 904 l 208 904 z m 293 -17 b 540 118 407 -17 499 33 l 553 0 l 633 0 l 633 435 b 364 690 633 613 519 690 b 88 467 199 690 88 603 l 175 467 b 361 610 175 557 244 610 b 539 436 460 610 539 568 l 539 414 l 317 396 b 65 182 160 383 65 306 b 293 -17 65 64 150 -17 z m 315 61 b 163 185 224 61 163 103 b 340 326 163 260 214 315 l 539 342 l 539 306 b 315 61 539 160 457 61 z "},"ą":{"ha":725,"x_min":0,"x_max":0,"o":"m 293 -17 b 540 118 407 -17 499 33 l 553 0 l 565 0 b 479 -115 510 -26 479 -69 b 581 -211 479 -171 519 -211 b 631 -203 599 -211 615 -208 l 631 -129 b 603 -135 619 -133 611 -135 b 554 -92 574 -135 554 -122 b 633 0 554 -61 578 -24 l 633 435 b 364 690 633 613 519 690 b 88 467 199 690 88 603 l 175 467 b 361 610 175 557 244 610 b 539 436 460 610 539 568 l 539 414 l 317 396 b 65 182 160 383 65 306 b 293 -17 65 64 150 -17 z m 315 61 b 163 185 224 61 163 103 b 340 326 163 260 214 315 l 539 342 l 539 306 b 315 61 539 160 457 61 z "},"å":{"ha":725,"x_min":0,"x_max":0,"o":"m 369 746 b 519 897 454 746 519 813 b 369 1046 519 981 454 1046 b 219 897 285 1046 219 982 b 369 746 219 810 282 746 z m 369 813 b 289 897 321 813 289 847 b 369 982 289 947 322 982 b 449 897 415 982 449 946 b 369 813 449 847 417 813 z m 293 -17 b 540 118 407 -17 499 33 l 553 0 l 633 0 l 633 435 b 364 690 633 613 519 690 b 88 467 199 690 88 603 l 175 467 b 361 610 175 557 244 610 b 539 436 460 610 539 568 l 539 414 l 317 396 b 65 182 160 383 65 306 b 293 -17 65 64 150 -17 z m 315 61 b 163 185 224 61 163 103 b 340 326 163 260 214 315 l 539 342 l 539 306 b 315 61 539 160 457 61 z "},"ǻ":{"ha":725,"x_min":0,"x_max":0,"o":"m 504 1106 l 407 1106 l 325 947 l 401 947 z m 293 -17 b 540 118 407 -17 499 33 l 553 0 l 633 0 l 633 435 b 478 674 633 565 572 642 b 515 775 501 700 515 735 b 365 925 515 860 450 925 b 215 775 281 925 215 861 b 251 675 215 735 228 700 b 88 467 150 643 88 568 l 175 467 b 361 610 175 557 244 610 b 539 436 460 610 539 568 l 539 414 l 317 396 b 65 182 160 383 65 306 b 293 -17 65 64 150 -17 z m 365 690 b 285 775 317 690 285 725 b 365 860 285 825 318 860 b 444 775 411 860 444 824 b 365 690 444 725 413 690 z m 315 61 b 163 185 224 61 163 103 b 340 326 163 260 214 315 l 539 342 l 539 306 b 315 61 539 160 457 61 z "},"ã":{"ha":725,"x_min":0,"x_max":0,"o":"m 244 774 b 289 849 244 822 260 849 b 451 774 336 849 372 774 b 561 921 525 774 565 825 l 493 921 b 446 846 493 871 479 846 b 276 921 389 846 353 921 b 175 774 210 921 169 865 z m 293 -17 b 540 118 407 -17 499 33 l 553 0 l 633 0 l 633 435 b 364 690 633 613 519 690 b 88 467 199 690 88 603 l 175 467 b 361 610 175 557 244 610 b 539 436 460 610 539 568 l 539 414 l 317 396 b 65 182 160 383 65 306 b 293 -17 65 64 150 -17 z m 315 61 b 163 185 224 61 163 103 b 340 326 163 260 214 315 l 539 342 l 539 306 b 315 61 539 160 457 61 z "},"æ":{"ha":1217,"x_min":0,"x_max":0,"o":"m 65 186 b 299 -17 65 63 150 -17 b 579 156 435 -17 539 53 b 864 -17 631 47 732 -17 b 1164 201 1024 -17 1128 60 l 1071 201 b 865 65 1047 113 976 65 b 626 324 718 65 635 165 l 1163 324 l 1163 371 b 857 690 1163 560 1042 690 b 597 551 743 690 651 639 b 361 690 563 636 475 690 b 88 467 197 690 88 603 l 175 467 b 360 610 175 556 243 610 b 539 436 468 610 539 549 l 539 390 l 311 385 b 65 186 164 382 65 317 z m 857 608 b 1067 392 985 608 1067 521 l 629 392 b 857 608 644 522 731 608 z m 163 190 b 326 315 163 272 214 313 l 539 321 l 539 275 b 322 61 539 147 454 61 b 163 190 225 61 163 103 z "},"ǽ":{"ha":1217,"x_min":0,"x_max":0,"o":"m 744 915 l 643 915 l 560 750 l 638 750 z m 65 186 b 299 -17 65 63 150 -17 b 579 156 435 -17 539 53 b 864 -17 631 47 732 -17 b 1164 201 1024 -17 1128 60 l 1071 201 b 865 65 1047 113 976 65 b 626 324 718 65 635 165 l 1163 324 l 1163 371 b 857 690 1163 560 1042 690 b 597 551 743 690 651 639 b 361 690 563 636 475 690 b 88 467 197 690 88 603 l 175 467 b 360 610 175 556 243 610 b 539 436 468 610 539 549 l 539 390 l 311 385 b 65 186 164 382 65 317 z m 857 608 b 1067 392 985 608 1067 521 l 629 392 b 857 608 644 522 731 608 z m 163 190 b 326 315 163 272 214 313 l 539 321 l 539 275 b 322 61 539 147 454 61 b 163 190 225 61 163 103 z "},"b":{"ha":811,"x_min":0,"x_max":0,"o":"m 183 0 l 193 138 b 446 -17 240 33 333 -17 b 758 335 642 -17 758 133 b 449 690 758 538 644 690 b 196 542 335 690 243 640 l 196 1013 l 100 1013 l 100 0 z m 197 338 b 431 604 197 492 283 604 b 661 338 576 604 661 492 b 431 71 661 182 576 71 b 197 338 283 71 197 182 z "},"c":{"ha":722,"x_min":0,"x_max":0,"o":"m 53 335 b 372 -17 53 124 182 -17 b 676 211 525 -17 644 74 l 579 211 b 372 69 553 125 472 69 b 147 336 236 69 147 176 b 379 606 147 501 243 606 b 578 461 472 606 553 554 l 674 461 b 378 690 647 600 533 690 b 53 335 182 690 53 546 z "},"ć":{"ha":722,"x_min":0,"x_max":0,"o":"m 514 915 l 414 915 l 331 750 l 408 750 z m 53 335 b 372 -17 53 124 182 -17 b 676 211 525 -17 644 74 l 579 211 b 372 69 553 125 472 69 b 147 336 236 69 147 176 b 379 606 147 501 243 606 b 578 461 472 606 553 554 l 674 461 b 378 690 647 600 533 690 b 53 335 182 690 53 546 z "},"č":{"ha":722,"x_min":0,"x_max":0,"o":"m 306 750 l 426 750 l 532 919 l 446 919 l 367 797 l 286 919 l 199 919 z m 53 335 b 372 -17 53 124 182 -17 b 676 211 525 -17 644 74 l 579 211 b 372 69 553 125 472 69 b 147 336 236 69 147 176 b 379 606 147 501 243 606 b 578 461 472 606 553 554 l 674 461 b 378 690 647 600 533 690 b 53 335 182 690 53 546 z "},"ç":{"ha":722,"x_min":0,"x_max":0,"o":"m 53 335 b 342 -15 53 135 168 -1 l 308 -86 l 322 -121 b 390 -104 350 -108 364 -104 b 446 -150 424 -104 446 -119 b 381 -197 446 -181 417 -197 b 303 -175 353 -197 328 -189 l 303 -233 b 389 -254 326 -249 353 -254 b 513 -147 453 -254 513 -219 b 417 -56 513 -87 469 -56 b 375 -62 403 -56 390 -58 l 397 -15 b 676 211 538 -7 646 81 l 579 211 b 372 69 553 125 472 69 b 147 336 236 69 147 176 b 379 606 147 501 243 606 b 578 461 472 606 553 554 l 674 461 b 378 690 647 600 533 690 b 53 335 182 690 53 546 z "},"ĉ":{"ha":722,"x_min":0,"x_max":0,"o":"m 286 750 l 367 874 l 446 750 l 532 750 l 426 919 l 306 919 l 199 750 z m 53 335 b 372 -17 53 124 182 -17 b 676 211 525 -17 644 74 l 579 211 b 372 69 553 125 472 69 b 147 336 236 69 147 176 b 379 606 147 501 243 606 b 578 461 472 606 553 554 l 674 461 b 378 690 647 600 533 690 b 53 335 182 690 53 546 z "},"ċ":{"ha":722,"x_min":0,"x_max":0,"o":"m 365 778 b 436 847 403 778 436 810 b 365 918 436 885 403 918 b 296 847 328 918 296 885 b 365 778 296 810 328 778 z m 53 335 b 372 -17 53 124 182 -17 b 676 211 525 -17 644 74 l 579 211 b 372 69 553 125 472 69 b 147 336 236 69 147 176 b 379 606 147 501 243 606 b 578 461 472 606 553 554 l 674 461 b 378 690 647 600 533 690 b 53 335 182 690 53 546 z "},"d":{"ha":811,"x_min":0,"x_max":0,"o":"m 364 -17 b 618 138 476 -17 571 33 l 628 0 l 711 0 l 711 1013 l 615 1013 l 615 544 b 368 690 568 642 479 690 b 53 335 168 690 53 538 b 364 -17 53 133 168 -17 z m 381 71 b 150 338 235 71 150 182 b 381 604 150 492 235 604 b 614 338 528 604 614 492 b 381 71 614 182 528 71 z "},"ð":{"ha":804,"x_min":0,"x_max":0,"o":"m 53 335 b 399 -17 53 133 197 -17 b 751 372 606 -17 751 133 b 528 899 751 572 685 729 l 622 950 l 592 1011 l 479 949 b 410 1013 456 971 433 992 l 293 1013 b 401 907 332 976 367 942 l 281 840 l 310 779 l 451 857 b 636 565 543 760 597 679 b 396 681 579 639 492 681 b 53 335 208 681 53 532 z m 150 332 b 406 593 150 482 254 593 b 654 338 554 593 654 485 b 400 69 654 182 550 69 b 150 332 251 69 150 181 z "},"ď":{"ha":811,"x_min":0,"x_max":0,"o":"m 364 -17 b 618 138 476 -17 571 33 l 628 0 l 711 0 l 711 1013 l 615 1013 l 615 544 b 368 690 568 642 479 690 b 53 335 168 690 53 538 b 364 -17 53 133 168 -17 z m 788 796 l 853 796 l 876 1013 l 788 1013 z m 381 71 b 150 338 235 71 150 182 b 381 604 150 492 235 604 b 614 338 528 604 614 492 b 381 71 614 182 528 71 z "},"đ":{"ha":811,"x_min":0,"x_max":0,"o":"m 364 -17 b 618 138 476 -17 571 33 l 628 0 l 711 0 l 711 801 l 794 801 l 794 869 l 711 869 l 711 1013 l 615 1013 l 615 869 l 392 869 l 392 801 l 615 801 l 615 544 b 368 690 568 642 479 690 b 53 335 168 690 53 538 b 364 -17 53 133 168 -17 z m 381 71 b 150 338 235 71 150 182 b 381 604 150 492 235 604 b 614 338 528 604 614 492 b 381 71 614 182 528 71 z "},"e":{"ha":733,"x_min":0,"x_max":0,"o":"m 382 -17 b 681 201 540 -17 644 60 l 589 201 b 383 65 564 113 493 65 b 146 324 239 65 153 160 l 681 324 l 681 371 b 375 690 681 561 557 690 b 53 336 183 690 53 546 b 382 -17 53 125 185 -17 z m 375 608 b 585 393 501 608 585 522 l 149 393 b 375 608 165 525 249 608 z "},"é":{"ha":733,"x_min":0,"x_max":0,"o":"m 524 915 l 424 915 l 339 750 l 418 750 z m 382 -17 b 681 201 540 -17 644 60 l 589 201 b 383 65 564 113 493 65 b 146 324 239 65 153 160 l 681 324 l 681 371 b 375 690 681 561 557 690 b 53 336 183 690 53 546 b 382 -17 53 125 185 -17 z m 375 608 b 585 393 501 608 585 522 l 149 393 b 375 608 165 525 249 608 z "},"ĕ":{"ha":733,"x_min":0,"x_max":0,"o":"m 468 917 b 375 819 468 856 436 819 b 283 917 314 819 283 856 l 206 917 b 375 744 206 810 271 744 b 546 917 479 744 546 811 z m 382 -17 b 681 201 540 -17 644 60 l 589 201 b 383 65 564 113 493 65 b 146 324 239 65 153 160 l 681 324 l 681 371 b 375 690 681 561 557 690 b 53 336 183 690 53 546 b 382 -17 53 125 185 -17 z m 375 608 b 585 393 501 608 585 522 l 149 393 b 375 608 165 525 249 608 z "},"ě":{"ha":733,"x_min":0,"x_max":0,"o":"m 314 750 l 435 750 l 542 919 l 454 919 l 375 797 l 294 919 l 208 919 z m 382 -17 b 681 201 540 -17 644 60 l 589 201 b 383 65 564 113 493 65 b 146 324 239 65 153 160 l 681 324 l 681 371 b 375 690 681 561 557 690 b 53 336 183 690 53 546 b 382 -17 53 125 185 -17 z m 375 608 b 585 393 501 608 585 522 l 149 393 b 375 608 165 525 249 608 z "},"ê":{"ha":733,"x_min":0,"x_max":0,"o":"m 294 750 l 375 874 l 454 750 l 542 750 l 435 919 l 314 919 l 208 750 z m 382 -17 b 681 201 540 -17 644 60 l 589 201 b 383 65 564 113 493 65 b 146 324 239 65 153 160 l 681 324 l 681 371 b 375 690 681 561 557 690 b 53 336 183 690 53 546 b 382 -17 53 125 185 -17 z m 375 608 b 585 393 501 608 585 522 l 149 393 b 375 608 165 525 249 608 z "},"ë":{"ha":733,"x_min":0,"x_max":0,"o":"m 274 778 b 343 846 311 778 343 808 b 274 915 343 883 311 915 b 206 846 236 915 206 883 b 274 778 206 808 236 778 z m 476 778 b 546 846 513 778 546 808 b 476 915 546 883 513 915 b 408 846 439 915 408 883 b 476 778 408 808 439 778 z m 382 -17 b 681 201 540 -17 644 60 l 589 201 b 383 65 564 113 493 65 b 146 324 239 65 153 160 l 681 324 l 681 371 b 375 690 681 561 557 690 b 53 336 183 690 53 546 b 382 -17 53 125 185 -17 z m 375 608 b 585 393 501 608 585 522 l 149 393 b 375 608 165 525 249 608 z "},"ė":{"ha":733,"x_min":0,"x_max":0,"o":"m 375 778 b 444 847 413 778 444 810 b 375 918 444 885 413 918 b 306 847 338 918 306 885 b 375 778 306 810 336 778 z m 382 -17 b 681 201 540 -17 644 60 l 589 201 b 383 65 564 113 493 65 b 146 324 239 65 153 160 l 681 324 l 681 371 b 375 690 681 561 557 690 b 53 336 183 690 53 546 b 382 -17 53 125 185 -17 z m 375 608 b 585 393 501 608 585 522 l 149 393 b 375 608 165 525 249 608 z "},"è":{"ha":733,"x_min":0,"x_max":0,"o":"m 411 750 l 329 917 l 229 917 l 333 750 z m 382 -17 b 681 201 540 -17 644 60 l 589 201 b 383 65 564 113 493 65 b 146 324 239 65 153 160 l 681 324 l 681 371 b 375 690 681 561 557 690 b 53 336 183 690 53 546 b 382 -17 53 125 185 -17 z m 375 608 b 585 393 501 608 585 522 l 149 393 b 375 608 165 525 249 608 z "},"ē":{"ha":733,"x_min":0,"x_max":0,"o":"m 214 828 l 536 828 l 536 904 l 214 904 z m 382 -17 b 681 201 540 -17 644 60 l 589 201 b 383 65 564 113 493 65 b 146 324 239 65 153 160 l 681 324 l 681 371 b 375 690 681 561 557 690 b 53 336 183 690 53 546 b 382 -17 53 125 185 -17 z m 375 608 b 585 393 501 608 585 522 l 149 393 b 375 608 165 525 249 608 z "},"ę":{"ha":733,"x_min":0,"x_max":0,"o":"m 382 -17 b 403 -17 389 -17 396 -17 b 344 -115 365 -42 344 -78 b 446 -211 344 -171 385 -211 b 496 -203 465 -211 482 -208 l 496 -129 b 468 -135 486 -133 476 -135 b 419 -92 439 -135 419 -122 b 499 0 419 -61 444 -24 b 681 201 592 29 654 99 l 589 201 b 383 65 564 113 493 65 b 146 324 239 65 153 160 l 681 324 l 681 371 b 375 690 681 561 557 690 b 53 336 183 690 53 546 b 382 -17 53 125 185 -17 z m 375 608 b 585 393 501 608 585 522 l 149 393 b 375 608 165 525 249 608 z "},"f":{"ha":413,"x_min":0,"x_max":0,"o":"m 25 672 l 25 592 l 128 592 l 128 0 l 224 0 l 224 592 l 382 592 l 382 672 l 224 672 l 224 803 b 331 925 224 882 246 925 l 388 925 l 388 1007 b 314 1013 365 1011 338 1013 b 128 803 211 1013 128 954 l 128 672 z "},"g":{"ha":811,"x_min":0,"x_max":0,"o":"m 54 356 b 363 21 54 172 171 21 b 617 171 478 21 571 76 l 617 11 b 388 -222 617 -129 525 -222 b 163 -50 267 -222 183 -158 l 67 -50 b 386 -310 93 -212 214 -310 b 711 21 583 -310 711 -179 l 711 672 l 628 672 l 618 538 b 369 690 575 636 486 690 b 54 356 172 690 54 539 z m 150 357 b 378 606 150 493 233 606 b 608 357 525 606 608 500 b 376 107 608 213 522 107 b 150 357 235 107 150 219 z "},"ğ":{"ha":811,"x_min":0,"x_max":0,"o":"m 481 931 b 389 833 481 868 450 833 b 296 931 328 833 296 868 l 218 931 b 389 757 218 824 283 757 b 558 931 492 757 558 824 z m 54 356 b 363 21 54 172 171 21 b 617 171 478 21 571 76 l 617 11 b 388 -222 617 -129 525 -222 b 163 -50 267 -222 183 -158 l 67 -50 b 386 -310 93 -212 214 -310 b 711 21 583 -310 711 -179 l 711 672 l 628 672 l 618 538 b 369 690 575 636 486 690 b 54 356 172 690 54 539 z m 150 357 b 378 606 150 493 233 606 b 608 357 525 606 608 500 b 376 107 608 213 522 107 b 150 357 235 107 150 219 z "},"ĝ":{"ha":811,"x_min":0,"x_max":0,"o":"m 308 764 l 389 886 l 468 764 l 554 764 l 449 932 l 328 932 l 221 764 z m 54 356 b 363 21 54 172 171 21 b 617 171 478 21 571 76 l 617 11 b 388 -222 617 -129 525 -222 b 163 -50 267 -222 183 -158 l 67 -50 b 386 -310 93 -212 214 -310 b 711 21 583 -310 711 -179 l 711 672 l 628 672 l 618 538 b 369 690 575 636 486 690 b 54 356 172 690 54 539 z m 150 357 b 378 606 150 493 233 606 b 608 357 525 606 608 500 b 376 107 608 213 522 107 b 150 357 235 107 150 219 z "},"ģ":{"ha":811,"x_min":0,"x_max":0,"o":"m 451 821 b 390 882 451 856 424 882 b 369 879 383 882 376 881 b 436 933 372 914 396 935 l 436 975 b 315 842 375 978 315 928 b 386 754 315 785 343 754 b 451 821 424 754 451 783 z m 54 356 b 363 21 54 172 171 21 b 617 171 478 21 571 76 l 617 11 b 388 -222 617 -129 525 -222 b 163 -50 267 -222 183 -158 l 67 -50 b 386 -310 93 -212 214 -310 b 711 21 583 -310 711 -179 l 711 672 l 628 672 l 618 538 b 369 690 575 636 486 690 b 54 356 172 690 54 539 z m 150 357 b 378 606 150 493 233 606 b 608 357 525 606 608 500 b 376 107 608 213 522 107 b 150 357 235 107 150 219 z "},"ġ":{"ha":811,"x_min":0,"x_max":0,"o":"m 388 792 b 458 860 425 792 458 822 b 388 931 458 899 425 931 b 318 860 350 931 318 899 b 388 792 318 822 350 792 z m 54 356 b 363 21 54 172 171 21 b 617 171 478 21 571 76 l 617 11 b 388 -222 617 -129 525 -222 b 163 -50 267 -222 183 -158 l 67 -50 b 386 -310 93 -212 214 -310 b 711 21 583 -310 711 -179 l 711 672 l 628 672 l 618 538 b 369 690 575 636 486 690 b 54 356 172 690 54 539 z m 150 357 b 378 606 150 493 233 606 b 608 357 525 606 608 500 b 376 107 608 213 522 107 b 150 357 235 107 150 219 z "},"h":{"ha":781,"x_min":0,"x_max":0,"o":"m 196 1 l 196 367 b 415 603 196 496 271 603 b 593 390 519 603 593 547 l 593 0 l 689 0 l 689 411 b 433 690 689 581 610 690 b 196 556 321 690 239 636 l 196 1013 l 100 1013 l 100 1 z "},"ħ":{"ha":781,"x_min":0,"x_max":0,"o":"m 196 1 l 196 367 b 415 603 196 496 271 603 b 593 390 519 603 593 547 l 593 0 l 689 0 l 689 411 b 433 690 689 581 610 690 b 196 556 321 690 239 636 l 196 801 l 418 801 l 418 869 l 196 869 l 196 1013 l 100 1013 l 100 869 l 15 869 l 15 801 l 100 801 l 100 1 z "},"i":{"ha":296,"x_min":0,"x_max":0,"o":"m 147 857 b 219 928 186 857 219 889 b 147 1000 219 967 186 1000 b 76 928 108 1000 76 967 b 147 857 76 889 108 857 z m 100 0 l 196 0 l 196 672 l 100 672 z "},"í":{"ha":296,"x_min":0,"x_max":0,"o":"m 297 915 l 196 915 l 113 750 l 190 750 z m 100 0 l 196 0 l 196 672 l 100 672 z "},"î":{"ha":296,"x_min":0,"x_max":0,"o":"m 68 750 l 149 874 l 228 750 l 314 750 l 208 919 l 88 919 l -18 750 z m 100 0 l 196 0 l 196 672 l 100 672 z "},"ï":{"ha":296,"x_min":0,"x_max":0,"o":"m 47 778 b 115 846 83 778 115 808 b 47 915 115 883 83 915 b -22 846 10 915 -22 883 b 47 778 -22 808 10 778 z m 250 778 b 318 846 286 778 318 808 b 250 915 318 883 286 915 b 181 846 213 915 181 883 b 250 778 181 808 213 778 z m 100 0 l 196 0 l 196 672 l 100 672 z "},"ì":{"ha":296,"x_min":0,"x_max":0,"o":"m 185 750 l 103 917 l 1 917 l 106 750 z m 100 0 l 196 0 l 196 672 l 100 672 z "},"ī":{"ha":296,"x_min":0,"x_max":0,"o":"m -12 828 l 310 828 l 310 904 l -12 904 z m 100 0 l 196 0 l 196 672 l 100 672 z "},"į":{"ha":296,"x_min":0,"x_max":0,"o":"m 147 857 b 219 928 186 857 219 889 b 147 1000 219 967 186 1000 b 76 928 108 1000 76 967 b 147 857 76 889 108 857 z m 100 0 l 128 0 b 42 -115 72 -26 42 -69 b 143 -211 42 -171 82 -211 b 193 -203 161 -211 178 -208 l 193 -129 b 164 -135 182 -133 174 -135 b 117 -92 136 -135 117 -122 b 196 0 117 -61 140 -24 l 196 672 l 100 672 z "},"ĩ":{"ha":296,"x_min":0,"x_max":0,"o":"m 24 774 b 68 849 24 822 39 849 b 231 774 115 849 151 774 b 340 921 304 774 344 825 l 272 921 b 225 846 272 871 258 846 b 57 921 169 846 132 921 b -46 774 -11 921 -51 865 z m 100 0 l 196 0 l 196 672 l 100 672 z "},"j":{"ha":296,"x_min":0,"x_max":0,"o":"m 149 857 b 219 928 186 857 219 889 b 149 1000 219 967 186 1000 b 76 928 108 1000 76 967 b 149 857 76 889 108 857 z m -79 -294 b 11 -307 -44 -304 -25 -307 b 196 -101 129 -307 196 -229 l 196 672 l 100 672 l 100 -96 b 4 -217 100 -178 71 -217 b -61 -207 -17 -217 -33 -214 z "},"ĵ":{"ha":296,"x_min":0,"x_max":0,"o":"m 68 750 l 149 874 l 228 750 l 314 750 l 208 919 l 88 919 l -18 750 z m -79 -294 b 11 -307 -44 -304 -25 -307 b 196 -101 129 -307 196 -229 l 196 672 l 100 672 l 100 -96 b 4 -217 100 -178 71 -217 b -61 -207 -17 -217 -33 -214 z "},"k":{"ha":669,"x_min":0,"x_max":0,"o":"m 200 0 l 200 201 l 331 336 l 544 0 l 656 0 l 396 404 l 654 672 l 533 672 l 200 325 l 200 1013 l 104 1013 l 104 0 z "},"ķ":{"ha":669,"x_min":0,"x_max":0,"o":"m 200 0 l 200 201 l 331 336 l 544 0 l 656 0 l 396 404 l 654 672 l 533 672 l 200 325 l 200 1013 l 104 1013 l 104 0 z m 414 -137 b 343 -50 414 -82 386 -50 b 278 -118 306 -50 278 -79 b 339 -178 278 -153 306 -178 b 361 -174 347 -178 354 -176 b 293 -229 357 -208 333 -231 l 293 -271 b 414 -137 354 -274 414 -224 z "},"l":{"ha":304,"x_min":0,"x_max":0,"o":"m 200 0 l 200 1013 l 104 1013 l 104 0 z "},"ĺ":{"ha":304,"x_min":0,"x_max":0,"o":"m 300 1235 l 200 1235 l 117 1069 l 194 1069 z m 200 0 l 200 1013 l 104 1013 l 104 0 z "},"ľ":{"ha":304,"x_min":0,"x_max":0,"o":"m 200 0 l 200 1013 l 104 1013 l 104 0 z m 276 796 l 343 796 l 367 1013 l 276 1013 z "},"ļ":{"ha":304,"x_min":0,"x_max":0,"o":"m 200 0 l 200 1013 l 104 1013 l 104 0 z m 218 -137 b 147 -50 218 -82 190 -50 b 82 -118 110 -50 82 -79 b 143 -178 82 -153 110 -178 b 165 -174 151 -178 158 -176 b 97 -229 161 -208 138 -231 l 97 -271 b 218 -137 158 -274 218 -224 z "},"ŀ":{"ha":458,"x_min":0,"x_max":0,"o":"m 200 0 l 200 1013 l 104 1013 l 104 0 z m 382 435 b 450 503 418 435 450 467 b 382 571 450 540 419 571 b 313 503 343 571 313 540 b 382 435 313 465 344 435 z "},"ł":{"ha":304,"x_min":0,"x_max":0,"o":"m 200 0 l 200 515 l 286 557 l 286 635 l 200 593 l 200 1013 l 104 1013 l 104 547 l 18 506 l 18 429 l 104 471 l 104 0 z "},"m":{"ha":1169,"x_min":0,"x_max":0,"o":"m 196 0 l 196 417 b 376 603 196 519 264 603 b 543 422 478 603 543 536 l 543 0 l 638 0 l 638 415 b 817 604 638 519 704 604 b 983 421 919 604 983 536 l 983 0 l 1076 0 l 1076 440 b 835 690 1076 596 981 690 b 614 547 726 690 644 635 b 397 690 582 635 503 690 b 194 576 303 690 228 647 l 183 672 l 100 672 l 100 0 z "},"n":{"ha":781,"x_min":0,"x_max":0,"o":"m 196 0 l 196 351 b 411 603 196 503 274 603 b 593 390 522 603 593 547 l 593 0 l 689 0 l 689 411 b 428 690 689 581 613 690 b 197 556 331 690 242 642 l 183 672 l 100 672 l 100 0 z "},"ń":{"ha":781,"x_min":0,"x_max":0,"o":"m 542 915 l 440 915 l 357 750 l 435 750 z m 196 0 l 196 351 b 411 603 196 503 274 603 b 593 390 522 603 593 547 l 593 0 l 689 0 l 689 411 b 428 690 689 581 613 690 b 197 556 331 690 242 642 l 183 672 l 100 672 l 100 0 z "},"ň":{"ha":781,"x_min":0,"x_max":0,"o":"m 332 750 l 453 750 l 558 919 l 472 919 l 393 797 l 313 919 l 226 919 z m 196 0 l 196 351 b 411 603 196 503 274 603 b 593 390 522 603 593 547 l 593 0 l 689 0 l 689 411 b 428 690 689 581 613 690 b 197 556 331 690 242 642 l 183 672 l 100 672 l 100 0 z "},"ņ":{"ha":781,"x_min":0,"x_max":0,"o":"m 196 0 l 196 351 b 411 603 196 503 274 603 b 593 390 522 603 593 547 l 593 0 l 689 0 l 689 411 b 428 690 689 581 613 690 b 197 556 331 690 242 642 l 183 672 l 100 672 l 100 0 z m 457 -137 b 385 -50 457 -82 428 -50 b 319 -118 349 -50 319 -79 b 382 -178 319 -153 347 -178 b 403 -174 389 -178 396 -176 b 335 -229 399 -208 375 -231 l 335 -271 b 457 -137 396 -274 457 -224 z "},"ŋ":{"ha":781,"x_min":0,"x_max":0,"o":"m 196 0 l 196 351 b 411 603 196 503 274 603 b 593 390 522 603 593 547 l 593 -96 b 497 -217 593 -178 564 -217 b 432 -207 475 -217 458 -214 l 413 -294 b 504 -307 447 -304 468 -307 b 689 -101 621 -307 689 -229 l 689 411 b 428 690 689 581 613 690 b 197 556 331 690 242 642 l 183 672 l 100 672 l 100 0 z "},"ñ":{"ha":781,"x_min":0,"x_max":0,"o":"m 268 774 b 313 849 268 822 283 849 b 476 774 360 849 396 774 b 585 921 549 774 589 825 l 517 921 b 469 846 517 871 503 846 b 301 921 414 846 376 921 b 199 774 233 921 193 865 z m 196 0 l 196 351 b 411 603 196 503 274 603 b 593 390 522 603 593 547 l 593 0 l 689 0 l 689 411 b 428 690 689 581 613 690 b 197 556 331 690 242 642 l 183 672 l 100 672 l 100 0 z "},"o":{"ha":789,"x_min":0,"x_max":0,"o":"m 53 336 b 394 -17 53 132 197 -17 b 736 336 592 -17 736 132 b 394 690 736 542 592 690 b 53 336 197 690 53 542 z m 150 338 b 394 604 150 493 250 604 b 639 338 538 604 639 493 b 394 69 639 179 538 69 b 150 338 250 69 150 179 z "},"ó":{"ha":789,"x_min":0,"x_max":0,"o":"m 543 915 l 442 915 l 358 750 l 438 750 z m 53 336 b 394 -17 53 132 197 -17 b 736 336 592 -17 736 132 b 394 690 736 542 592 690 b 53 336 197 690 53 542 z m 150 338 b 394 604 150 493 250 604 b 639 338 538 604 639 493 b 394 69 639 179 538 69 b 150 338 250 69 150 179 z "},"ô":{"ha":789,"x_min":0,"x_max":0,"o":"m 314 750 l 394 874 l 474 750 l 560 750 l 454 919 l 333 919 l 228 750 z m 53 336 b 394 -17 53 132 197 -17 b 736 336 592 -17 736 132 b 394 690 736 542 592 690 b 53 336 197 690 53 542 z m 150 338 b 394 604 150 493 250 604 b 639 338 538 604 639 493 b 394 69 639 179 538 69 b 150 338 250 69 150 179 z "},"ö":{"ha":789,"x_min":0,"x_max":0,"o":"m 293 778 b 363 846 329 778 363 808 b 293 915 363 883 329 915 b 225 846 256 915 225 883 b 293 778 225 808 256 778 z m 496 778 b 564 846 532 778 564 808 b 496 915 564 883 532 915 b 428 846 458 915 428 883 b 496 778 428 808 458 778 z m 53 336 b 394 -17 53 132 197 -17 b 736 336 592 -17 736 132 b 394 690 736 542 592 690 b 53 336 197 690 53 542 z m 150 338 b 394 604 150 493 250 604 b 639 338 538 604 639 493 b 394 69 639 179 538 69 b 150 338 250 69 150 179 z "},"ò":{"ha":789,"x_min":0,"x_max":0,"o":"m 431 750 l 349 917 l 249 917 l 351 750 z m 53 336 b 394 -17 53 132 197 -17 b 736 336 592 -17 736 132 b 394 690 736 542 592 690 b 53 336 197 690 53 542 z m 150 338 b 394 604 150 493 250 604 b 639 338 538 604 639 493 b 394 69 639 179 538 69 b 150 338 250 69 150 179 z "},"ő":{"ha":789,"x_min":0,"x_max":0,"o":"m 464 915 l 371 915 l 286 750 l 361 750 z m 629 915 l 531 915 l 429 750 l 507 750 z m 53 336 b 394 -17 53 132 197 -17 b 736 336 592 -17 736 132 b 394 690 736 542 592 690 b 53 336 197 690 53 542 z m 150 338 b 394 604 150 493 250 604 b 639 338 538 604 639 493 b 394 69 639 179 538 69 b 150 338 250 69 150 179 z "},"ō":{"ha":789,"x_min":0,"x_max":0,"o":"m 233 828 l 556 828 l 556 904 l 233 904 z m 53 336 b 394 -17 53 132 197 -17 b 736 336 592 -17 736 132 b 394 690 736 542 592 690 b 53 336 197 690 53 542 z m 150 338 b 394 604 150 493 250 604 b 639 338 538 604 639 493 b 394 69 639 179 538 69 b 150 338 250 69 150 179 z "},"ø":{"ha":789,"x_min":0,"x_max":0,"o":"m 53 336 b 179 56 53 218 101 118 l 101 -71 l 190 -71 l 244 15 b 394 -17 289 -6 339 -17 b 736 336 592 -17 736 132 b 614 614 736 453 689 551 l 683 728 l 596 728 l 551 656 b 394 690 504 678 451 690 b 53 336 197 690 53 542 z m 150 338 b 394 604 150 493 250 604 b 504 579 435 604 472 596 l 228 133 b 150 338 179 182 150 253 z m 639 338 b 394 69 639 179 538 69 b 290 92 357 69 321 78 l 564 535 b 639 338 611 488 639 418 z "},"ǿ":{"ha":789,"x_min":0,"x_max":0,"o":"m 543 915 l 442 915 l 358 750 l 438 750 z m 53 336 b 179 56 53 218 101 118 l 101 -71 l 190 -71 l 244 15 b 394 -17 289 -6 339 -17 b 736 336 592 -17 736 132 b 614 614 736 453 689 551 l 683 728 l 596 728 l 551 656 b 394 690 504 678 451 690 b 53 336 197 690 53 542 z m 150 338 b 394 604 150 493 250 604 b 504 579 435 604 472 596 l 228 133 b 150 338 179 182 150 253 z m 639 338 b 394 69 639 179 538 69 b 290 92 357 69 321 78 l 564 535 b 639 338 611 488 639 418 z "},"õ":{"ha":789,"x_min":0,"x_max":0,"o":"m 269 774 b 314 849 269 822 286 849 b 478 774 361 849 397 774 b 588 921 551 774 590 825 l 518 921 b 471 846 518 871 504 846 b 303 921 415 846 379 921 b 201 774 235 921 196 865 z m 53 336 b 394 -17 53 132 197 -17 b 736 336 592 -17 736 132 b 394 690 736 542 592 690 b 53 336 197 690 53 542 z m 150 338 b 394 604 150 493 250 604 b 639 338 538 604 639 493 b 394 69 639 179 538 69 b 150 338 250 69 150 179 z "},"œ":{"ha":1324,"x_min":0,"x_max":0,"o":"m 53 336 b 394 -17 53 132 197 -17 b 686 149 524 -17 629 47 b 971 -17 740 46 842 -17 b 1271 201 1129 -17 1235 60 l 1178 201 b 972 65 1154 113 1082 65 b 735 324 829 65 742 160 l 1269 324 l 1269 371 b 964 690 1269 561 1147 690 b 686 525 838 690 739 628 b 394 690 628 626 524 690 b 53 336 197 690 53 542 z m 964 608 b 1174 393 1090 608 1174 522 l 738 393 b 964 608 754 525 838 608 z m 150 338 b 394 604 150 493 250 604 b 639 338 538 604 639 493 b 394 69 639 179 538 69 b 150 338 250 69 150 179 z "},"p":{"ha":811,"x_min":0,"x_max":0,"o":"m 100 -293 l 196 -293 l 196 129 b 447 -17 243 32 333 -17 b 758 339 646 -17 758 136 b 447 690 758 542 642 690 b 193 536 335 690 240 640 l 183 672 l 100 672 z m 197 336 b 431 603 197 492 283 603 b 661 336 576 603 661 492 b 431 69 661 182 576 69 b 197 336 283 69 197 182 z "},"þ":{"ha":811,"x_min":0,"x_max":0,"o":"m 758 338 b 449 690 758 540 643 690 b 196 542 335 690 243 640 l 196 1013 l 100 1013 l 100 -293 l 196 -293 l 196 129 b 447 -17 243 32 333 -17 b 758 338 646 -17 758 136 z m 661 338 b 431 69 661 183 576 69 b 197 338 283 69 197 182 b 431 604 197 492 283 604 b 661 338 576 604 661 492 z "},"q":{"ha":811,"x_min":0,"x_max":0,"o":"m 53 339 b 364 -17 53 136 165 -17 b 615 129 478 -17 568 32 l 615 -293 l 711 -293 l 711 672 l 628 672 l 618 536 b 364 690 569 640 476 690 b 53 339 169 690 53 542 z m 150 336 b 381 603 150 492 235 603 b 614 336 528 603 614 492 b 381 69 614 182 528 69 b 150 336 235 69 150 182 z "},"r":{"ha":479,"x_min":0,"x_max":0,"o":"m 451 681 b 389 688 428 686 410 688 b 197 568 294 688 224 640 l 190 672 l 100 672 l 100 0 l 196 0 l 196 383 b 399 594 196 511 275 594 l 451 594 z "},"ŕ":{"ha":479,"x_min":0,"x_max":0,"o":"m 399 924 l 299 924 l 214 758 l 293 758 z m 451 681 b 389 688 428 686 410 688 b 197 568 294 688 224 640 l 190 672 l 100 672 l 100 0 l 196 0 l 196 383 b 399 594 196 511 275 594 l 451 594 z "},"ř":{"ha":479,"x_min":0,"x_max":0,"o":"m 189 758 l 311 758 l 417 926 l 329 926 l 250 804 l 171 926 l 83 926 z m 451 681 b 389 688 428 686 410 688 b 197 568 294 688 224 640 l 190 672 l 100 672 l 100 0 l 196 0 l 196 383 b 399 594 196 511 275 594 l 451 594 z "},"ŗ":{"ha":479,"x_min":0,"x_max":0,"o":"m 451 681 b 389 688 428 686 410 688 b 197 568 294 688 224 640 l 190 672 l 100 672 l 100 0 l 196 0 l 196 383 b 399 594 196 511 275 594 l 451 594 z m 214 -137 b 143 -50 214 -82 186 -50 b 78 -118 106 -50 78 -79 b 139 -178 78 -153 106 -178 b 161 -174 147 -178 154 -176 b 93 -229 157 -208 133 -231 l 93 -271 b 214 -137 154 -274 214 -224 z "},"s":{"ha":603,"x_min":0,"x_max":0,"o":"m 43 189 b 289 -17 43 64 138 -17 b 544 183 442 -17 544 63 b 375 364 544 281 492 335 l 260 393 b 150 499 186 411 150 447 b 297 611 150 571 203 611 b 444 488 388 611 442 565 l 538 488 b 300 690 533 613 442 690 b 57 497 156 690 57 615 b 231 315 57 406 114 344 l 346 286 b 453 179 425 267 453 235 b 288 63 453 107 392 63 b 135 189 193 63 135 111 z "},"ś":{"ha":603,"x_min":0,"x_max":0,"o":"m 447 949 l 346 949 l 263 783 l 342 783 z m 43 189 b 289 -17 43 64 138 -17 b 544 183 442 -17 544 63 b 375 364 544 281 492 335 l 260 393 b 150 499 186 411 150 447 b 297 611 150 571 203 611 b 444 488 388 611 442 565 l 538 488 b 300 690 533 613 442 690 b 57 497 156 690 57 615 b 231 315 57 406 114 344 l 346 286 b 453 179 425 267 453 235 b 288 63 453 107 392 63 b 135 189 193 63 135 111 z "},"š":{"ha":603,"x_min":0,"x_max":0,"o":"m 238 783 l 358 783 l 464 953 l 378 953 l 299 829 l 218 953 l 132 953 z m 43 189 b 289 -17 43 64 138 -17 b 544 183 442 -17 544 63 b 375 364 544 281 492 335 l 260 393 b 150 499 186 411 150 447 b 297 611 150 571 203 611 b 444 488 388 611 442 565 l 538 488 b 300 690 533 613 442 690 b 57 497 156 690 57 615 b 231 315 57 406 114 344 l 346 286 b 453 179 425 267 453 235 b 288 63 453 107 392 63 b 135 189 193 63 135 111 z "},"ş":{"ha":603,"x_min":0,"x_max":0,"o":"m 43 189 b 254 -15 43 74 124 -4 l 221 -86 l 235 -121 b 303 -104 263 -108 276 -104 b 358 -150 336 -104 358 -119 b 293 -197 358 -181 329 -197 b 215 -175 265 -197 240 -189 l 215 -233 b 301 -254 239 -249 265 -254 b 425 -147 365 -254 425 -219 b 329 -56 425 -87 382 -56 b 288 -62 315 -56 301 -58 l 308 -17 b 544 183 450 -10 544 68 b 375 364 544 281 492 335 l 260 393 b 150 499 186 411 150 447 b 297 611 150 571 203 611 b 444 488 388 611 442 565 l 538 488 b 300 690 533 613 442 690 b 57 497 156 690 57 615 b 231 315 57 406 114 344 l 346 286 b 453 179 425 267 453 235 b 288 63 453 107 392 63 b 135 189 193 63 135 111 z "},"ŝ":{"ha":603,"x_min":0,"x_max":0,"o":"m 218 783 l 299 907 l 378 783 l 464 783 l 358 953 l 238 953 l 132 783 z m 43 189 b 289 -17 43 64 138 -17 b 544 183 442 -17 544 63 b 375 364 544 281 492 335 l 260 393 b 150 499 186 411 150 447 b 297 611 150 571 203 611 b 444 488 388 611 442 565 l 538 488 b 300 690 533 613 442 690 b 57 497 156 690 57 615 b 231 315 57 406 114 344 l 346 286 b 453 179 425 267 453 235 b 288 63 453 107 392 63 b 135 189 193 63 135 111 z "},"ș":{"ha":603,"x_min":0,"x_max":0,"o":"m 43 189 b 289 -17 43 64 138 -17 b 544 183 442 -17 544 63 b 375 364 544 281 492 335 l 260 393 b 150 499 186 411 150 447 b 297 611 150 571 203 611 b 444 488 388 611 442 565 l 538 488 b 300 690 533 613 442 690 b 57 497 156 690 57 615 b 231 315 57 406 114 344 l 346 286 b 453 179 425 267 453 235 b 288 63 453 107 392 63 b 135 189 193 63 135 111 z m 357 -137 b 285 -50 357 -82 328 -50 b 219 -118 249 -50 219 -79 b 282 -178 219 -153 247 -178 b 303 -174 289 -178 296 -176 b 235 -229 299 -208 275 -231 l 235 -271 b 357 -137 296 -274 357 -224 z "},"ß":{"ha":782,"x_min":0,"x_max":0,"o":"m 196 0 l 196 722 b 396 929 196 851 279 929 b 565 765 504 929 565 858 b 389 599 565 664 496 599 l 319 599 l 319 517 l 389 517 b 640 306 553 517 640 438 b 400 88 640 185 556 88 l 275 88 l 275 8 b 397 0 301 3 358 0 b 736 304 614 0 736 133 b 525 567 736 433 657 536 b 661 768 611 597 661 678 b 394 1013 661 915 556 1013 b 100 717 221 1013 100 901 l 100 0 z "},"t":{"ha":414,"x_min":0,"x_max":0,"o":"m 254 0 l 254 592 l 389 592 l 389 672 l 254 672 l 254 885 l 160 885 l 160 672 l 25 672 l 25 592 l 160 592 l 160 0 z "},"ŧ":{"ha":414,"x_min":0,"x_max":0,"o":"m 254 0 l 254 338 l 353 338 l 353 414 l 254 414 l 254 592 l 389 592 l 389 672 l 254 672 l 254 885 l 160 885 l 160 672 l 25 672 l 25 592 l 160 592 l 160 414 l 61 414 l 61 338 l 160 338 l 160 0 z "},"ť":{"ha":414,"x_min":0,"x_max":0,"o":"m 325 781 l 392 781 l 415 997 l 325 997 z m 254 0 l 254 592 l 389 592 l 389 672 l 254 672 l 254 885 l 160 885 l 160 672 l 25 672 l 25 592 l 160 592 l 160 0 z "},"ţ":{"ha":414,"x_min":0,"x_max":0,"o":"m 254 0 l 254 592 l 389 592 l 389 672 l 254 672 l 254 885 l 160 885 l 160 672 l 25 672 l 25 592 l 160 592 l 160 0 l 178 0 l 138 -86 l 150 -121 b 218 -104 179 -108 193 -104 b 275 -150 253 -104 275 -119 b 210 -197 275 -181 246 -197 b 132 -175 182 -197 157 -189 l 132 -233 b 218 -254 156 -249 182 -254 b 342 -147 282 -254 342 -219 b 246 -56 342 -87 297 -56 b 204 -62 232 -56 218 -58 l 233 0 z "},"ț":{"ha":414,"x_min":0,"x_max":0,"o":"m 254 0 l 254 592 l 389 592 l 389 672 l 254 672 l 254 885 l 160 885 l 160 672 l 25 672 l 25 592 l 160 592 l 160 0 z m 274 -137 b 201 -50 274 -82 244 -50 b 136 -118 165 -50 136 -79 b 199 -178 136 -153 164 -178 b 219 -174 206 -178 213 -176 b 151 -229 215 -208 192 -231 l 151 -271 b 274 -137 213 -274 274 -224 z "},"u":{"ha":768,"x_min":0,"x_max":0,"o":"m 572 672 l 572 315 b 367 69 572 156 496 69 b 189 286 260 69 189 126 l 189 674 l 92 674 l 92 256 b 336 -17 92 92 178 -17 b 572 114 442 -17 535 36 l 585 0 l 668 0 l 668 672 z "},"ú":{"ha":768,"x_min":0,"x_max":0,"o":"m 525 915 l 424 915 l 340 750 l 419 750 z m 572 672 l 572 315 b 367 69 572 156 496 69 b 189 286 260 69 189 126 l 189 674 l 92 674 l 92 256 b 336 -17 92 92 178 -17 b 572 114 442 -17 535 36 l 585 0 l 668 0 l 668 672 z "},"û":{"ha":768,"x_min":0,"x_max":0,"o":"m 296 750 l 376 874 l 456 750 l 542 750 l 436 919 l 315 919 l 210 750 z m 572 672 l 572 315 b 367 69 572 156 496 69 b 189 286 260 69 189 126 l 189 674 l 92 674 l 92 256 b 336 -17 92 92 178 -17 b 572 114 442 -17 535 36 l 585 0 l 668 0 l 668 672 z "},"ü":{"ha":768,"x_min":0,"x_max":0,"o":"m 275 778 b 344 846 311 778 344 808 b 275 915 344 883 311 915 b 207 846 238 915 207 883 b 275 778 207 808 238 778 z m 478 778 b 546 846 514 778 546 808 b 478 915 546 883 514 915 b 410 846 440 915 410 883 b 478 778 410 808 440 778 z m 572 672 l 572 315 b 367 69 572 156 496 69 b 189 286 260 69 189 126 l 189 674 l 92 674 l 92 256 b 336 -17 92 92 178 -17 b 572 114 442 -17 535 36 l 585 0 l 668 0 l 668 672 z "},"ù":{"ha":768,"x_min":0,"x_max":0,"o":"m 413 750 l 331 917 l 231 917 l 333 750 z m 572 672 l 572 315 b 367 69 572 156 496 69 b 189 286 260 69 189 126 l 189 674 l 92 674 l 92 256 b 336 -17 92 92 178 -17 b 572 114 442 -17 535 36 l 585 0 l 668 0 l 668 672 z "},"ű":{"ha":768,"x_min":0,"x_max":0,"o":"m 446 915 l 353 915 l 268 750 l 343 750 z m 611 915 l 513 915 l 411 750 l 489 750 z m 572 672 l 572 315 b 367 69 572 156 496 69 b 189 286 260 69 189 126 l 189 674 l 92 674 l 92 256 b 336 -17 92 92 178 -17 b 572 114 442 -17 535 36 l 585 0 l 668 0 l 668 672 z "},"ū":{"ha":768,"x_min":0,"x_max":0,"o":"m 215 828 l 538 828 l 538 904 l 215 904 z m 572 672 l 572 315 b 367 69 572 156 496 69 b 189 286 260 69 189 126 l 189 674 l 92 674 l 92 256 b 336 -17 92 92 178 -17 b 572 114 442 -17 535 36 l 585 0 l 668 0 l 668 672 z "},"ų":{"ha":768,"x_min":0,"x_max":0,"o":"m 600 0 b 514 -115 544 -26 514 -69 b 615 -211 514 -171 554 -211 b 665 -203 633 -211 650 -208 l 665 -129 b 636 -135 654 -133 646 -135 b 589 -92 608 -135 589 -122 b 668 0 589 -61 613 -24 l 668 672 l 572 672 l 572 315 b 367 69 572 156 496 69 b 189 286 260 69 189 126 l 189 674 l 92 674 l 92 256 b 336 -17 92 92 178 -17 b 572 114 442 -17 535 36 l 585 0 z "},"ů":{"ha":768,"x_min":0,"x_max":0,"o":"m 376 746 b 526 897 461 746 526 813 b 376 1046 526 981 461 1046 b 226 897 292 1046 226 982 b 376 746 226 810 289 746 z m 376 813 b 297 897 329 813 297 847 b 376 982 297 947 331 982 b 457 897 424 982 457 946 b 376 813 457 847 425 813 z m 572 672 l 572 315 b 367 69 572 156 496 69 b 189 286 260 69 189 126 l 189 674 l 92 674 l 92 256 b 336 -17 92 92 178 -17 b 572 114 442 -17 535 36 l 585 0 l 668 0 l 668 672 z "},"ũ":{"ha":768,"x_min":0,"x_max":0,"o":"m 251 774 b 296 849 251 822 268 849 b 460 774 343 849 379 774 b 569 921 533 774 572 825 l 500 921 b 454 846 500 871 486 846 b 285 921 397 846 361 921 b 183 774 217 921 178 865 z m 572 672 l 572 315 b 367 69 572 156 496 69 b 189 286 260 69 189 126 l 189 674 l 92 674 l 92 256 b 336 -17 92 92 178 -17 b 572 114 442 -17 535 36 l 585 0 l 668 0 l 668 672 z "},"v":{"ha":675,"x_min":0,"x_max":0,"o":"m 288 0 l 383 0 l 663 672 l 564 672 l 388 239 b 338 100 368 190 350 146 b 289 239 325 144 307 190 l 115 672 l 13 672 z "},"w":{"ha":1031,"x_min":0,"x_max":0,"o":"m 242 0 l 338 0 l 476 422 b 515 554 494 478 506 518 b 551 422 524 514 535 472 l 690 0 l 783 0 l 1011 672 l 911 672 l 778 267 b 738 122 754 194 751 178 b 696 267 725 172 708 231 l 564 672 l 465 672 l 332 267 b 292 122 325 244 303 176 b 250 267 278 176 265 222 l 118 672 l 19 672 z "},"ẃ":{"ha":1031,"x_min":0,"x_max":0,"o":"m 664 915 l 564 915 l 479 750 l 558 750 z m 242 0 l 338 0 l 476 422 b 515 554 494 478 506 518 b 551 422 524 514 535 472 l 690 0 l 783 0 l 1011 672 l 911 672 l 778 267 b 738 122 754 194 751 178 b 696 267 725 172 708 231 l 564 672 l 465 672 l 332 267 b 292 122 325 244 303 176 b 250 267 278 176 265 222 l 118 672 l 19 672 z "},"ŵ":{"ha":1031,"x_min":0,"x_max":0,"o":"m 435 750 l 515 874 l 594 750 l 681 750 l 575 919 l 454 919 l 349 750 z m 242 0 l 338 0 l 476 422 b 515 554 494 478 506 518 b 551 422 524 514 535 472 l 690 0 l 783 0 l 1011 672 l 911 672 l 778 267 b 738 122 754 194 751 178 b 696 267 725 172 708 231 l 564 672 l 465 672 l 332 267 b 292 122 325 244 303 176 b 250 267 278 176 265 222 l 118 672 l 19 672 z "},"ẅ":{"ha":1031,"x_min":0,"x_max":0,"o":"m 414 778 b 483 846 450 778 483 808 b 414 915 483 883 450 915 b 346 846 376 915 346 883 b 414 778 346 808 376 778 z m 617 778 b 685 846 653 778 685 808 b 617 915 685 883 653 915 b 549 846 579 915 549 883 b 617 778 549 808 579 778 z m 242 0 l 338 0 l 476 422 b 515 554 494 478 506 518 b 551 422 524 514 535 472 l 690 0 l 783 0 l 1011 672 l 911 672 l 778 267 b 738 122 754 194 751 178 b 696 267 725 172 708 231 l 564 672 l 465 672 l 332 267 b 292 122 325 244 303 176 b 250 267 278 176 265 222 l 118 672 l 19 672 z "},"ẁ":{"ha":1031,"x_min":0,"x_max":0,"o":"m 551 750 l 469 917 l 369 917 l 472 750 z m 242 0 l 338 0 l 476 422 b 515 554 494 478 506 518 b 551 422 524 514 535 472 l 690 0 l 783 0 l 1011 672 l 911 672 l 778 267 b 738 122 754 194 751 178 b 696 267 725 172 708 231 l 564 672 l 465 672 l 332 267 b 292 122 325 244 303 176 b 250 267 278 176 265 222 l 118 672 l 19 672 z "},"x":{"ha":632,"x_min":0,"x_max":0,"o":"m 126 0 l 314 269 l 503 0 l 617 0 l 379 335 l 618 672 l 507 672 l 318 403 l 128 672 l 15 672 l 254 336 l 14 0 z "},"y":{"ha":654,"x_min":0,"x_max":0,"o":"m 32 -293 b 133 -303 63 -300 93 -303 b 333 -154 229 -303 294 -260 l 642 672 l 543 672 l 331 86 l 114 672 l 13 672 l 285 -40 l 256 -119 b 106 -214 222 -210 164 -214 l 32 -214 z "},"ý":{"ha":654,"x_min":0,"x_max":0,"o":"m 475 915 l 374 915 l 290 750 l 368 750 z m 32 -293 b 133 -303 63 -300 93 -303 b 333 -154 229 -303 294 -260 l 642 672 l 543 672 l 331 86 l 114 672 l 13 672 l 285 -40 l 256 -119 b 106 -214 222 -210 164 -214 l 32 -214 z "},"ŷ":{"ha":654,"x_min":0,"x_max":0,"o":"m 246 750 l 326 874 l 406 750 l 492 750 l 386 919 l 265 919 l 160 750 z m 32 -293 b 133 -303 63 -300 93 -303 b 333 -154 229 -303 294 -260 l 642 672 l 543 672 l 331 86 l 114 672 l 13 672 l 285 -40 l 256 -119 b 106 -214 222 -210 164 -214 l 32 -214 z "},"ÿ":{"ha":654,"x_min":0,"x_max":0,"o":"m 225 778 b 293 846 261 778 293 808 b 225 915 293 883 261 915 b 157 846 188 915 157 883 b 225 778 157 808 188 778 z m 428 778 b 496 846 464 778 496 808 b 428 915 496 883 464 915 b 358 846 390 915 358 883 b 428 778 358 808 390 778 z m 32 -293 b 133 -303 63 -300 93 -303 b 333 -154 229 -303 294 -260 l 642 672 l 543 672 l 331 86 l 114 672 l 13 672 l 285 -40 l 256 -119 b 106 -214 222 -210 164 -214 l 32 -214 z "},"ỳ":{"ha":654,"x_min":0,"x_max":0,"o":"m 363 750 l 281 917 l 181 917 l 283 750 z m 32 -293 b 133 -303 63 -300 93 -303 b 333 -154 229 -303 294 -260 l 642 672 l 543 672 l 331 86 l 114 672 l 13 672 l 285 -40 l 256 -119 b 106 -214 222 -210 164 -214 l 32 -214 z "},"z":{"ha":615,"x_min":0,"x_max":0,"o":"m 561 0 l 561 81 l 171 81 l 561 594 l 561 672 l 54 672 l 54 592 l 443 592 l 54 76 l 54 0 z "},"ź":{"ha":615,"x_min":0,"x_max":0,"o":"m 456 915 l 356 915 l 272 750 l 350 750 z m 561 0 l 561 81 l 171 81 l 561 594 l 561 672 l 54 672 l 54 592 l 443 592 l 54 76 l 54 0 z "},"ž":{"ha":615,"x_min":0,"x_max":0,"o":"m 247 750 l 368 750 l 474 919 l 388 919 l 308 797 l 228 919 l 140 919 z m 561 0 l 561 81 l 171 81 l 561 594 l 561 672 l 54 672 l 54 592 l 443 592 l 54 76 l 54 0 z "},"ż":{"ha":615,"x_min":0,"x_max":0,"o":"m 307 778 b 378 847 344 778 378 810 b 307 918 378 885 344 918 b 238 847 269 918 238 885 b 307 778 238 810 269 778 z m 561 0 l 561 81 l 171 81 l 561 594 l 561 672 l 54 672 l 54 592 l 443 592 l 54 76 l 54 0 z "},"ﬀ":{"ha":828,"x_min":0,"x_max":0,"o":"m 25 672 l 25 592 l 128 592 l 128 0 l 224 0 l 224 592 l 543 592 l 543 0 l 639 0 l 639 592 l 797 592 l 797 672 l 639 672 l 639 803 b 746 924 639 882 661 924 l 803 924 l 803 1007 b 729 1013 781 1011 753 1013 b 543 803 626 1013 543 954 l 543 672 l 224 672 l 224 803 b 329 924 224 882 246 924 l 388 924 l 388 1007 b 314 1013 365 1011 338 1013 b 128 803 210 1013 128 954 l 128 672 z "},"ﬃ":{"ha":1150,"x_min":0,"x_max":0,"o":"m 25 672 l 25 592 l 128 592 l 128 0 l 224 0 l 224 592 l 543 592 l 543 0 l 639 0 l 639 592 l 958 592 l 958 0 l 1054 0 l 1054 672 l 639 672 l 639 803 b 743 924 639 882 661 924 l 800 924 l 800 1007 b 726 1013 778 1011 750 1013 b 543 803 626 1013 543 954 l 543 672 l 224 672 l 224 803 b 329 924 224 882 246 924 l 388 924 l 388 1007 b 314 1013 365 1011 338 1013 b 128 803 210 1013 128 954 l 128 672 z m 1006 878 b 1072 943 1044 878 1072 906 b 1006 1013 1072 982 1044 1013 b 939 943 968 1013 939 982 b 1006 878 939 906 968 878 z "},"ﬄ":{"ha":1143,"x_min":0,"x_max":0,"o":"m 25 672 l 25 592 l 128 592 l 128 0 l 224 0 l 224 592 l 543 592 l 543 0 l 639 0 l 639 592 l 943 592 l 943 0 l 1038 0 l 1038 1013 l 943 1013 l 943 672 l 639 672 l 639 803 b 746 924 639 882 661 924 l 803 924 l 803 1007 b 729 1013 781 1011 753 1013 b 543 803 626 1013 543 954 l 543 672 l 224 672 l 224 803 b 329 924 224 882 246 924 l 388 924 l 388 1007 b 314 1013 365 1011 338 1013 b 128 803 210 1013 128 954 l 128 672 z "},"ﬁ":{"ha":735,"x_min":0,"x_max":0,"o":"m 543 0 l 639 0 l 639 672 l 224 672 l 224 803 b 326 924 224 882 246 924 l 385 924 l 385 1007 b 310 1013 363 1011 333 1013 b 128 803 210 1013 128 954 l 128 672 l 25 672 l 25 592 l 128 592 l 128 0 l 224 0 l 224 592 l 543 592 z m 590 864 b 657 931 628 864 657 892 b 590 999 657 969 628 999 b 524 931 551 999 524 969 b 590 864 524 892 551 864 z "},"ﬂ":{"ha":726,"x_min":0,"x_max":0,"o":"m 622 0 l 622 1013 l 526 1013 l 526 672 l 224 672 l 224 803 b 326 924 224 882 244 924 l 383 924 l 383 1007 b 310 1013 361 1011 333 1013 b 128 803 210 1013 128 954 l 128 672 l 25 672 l 25 592 l 128 592 l 128 0 l 224 0 l 224 592 l 526 592 l 526 0 z "},"Ω":{"ha":889,"x_min":0,"x_max":0,"o":"m 386 0 l 386 81 b 192 361 263 128 192 244 b 446 604 192 508 306 604 b 699 361 585 604 699 508 b 503 81 699 250 635 133 l 503 0 l 785 0 l 785 81 l 642 81 b 786 368 735 150 786 256 b 446 690 786 554 642 690 b 103 367 250 690 103 554 b 247 81 103 257 153 151 l 104 81 l 104 0 z "},"π":{"ha":836,"x_min":0,"x_max":0,"o":"m 161 0 l 256 0 l 256 588 l 538 588 l 538 154 b 678 -1 538 42 583 -1 b 779 6 710 -1 744 0 l 779 83 l 703 85 b 633 164 661 86 633 104 l 633 588 l 779 588 l 779 672 l 26 672 l 26 588 l 161 588 z "},"₀":{"ha":578,"x_min":0,"x_max":0,"o":"m 43 160 b 289 -150 43 -26 135 -150 b 535 160 440 -150 535 -26 b 289 474 535 347 443 474 b 43 160 138 474 43 347 z m 119 160 b 289 403 119 311 181 403 b 457 160 396 403 457 311 b 289 -81 457 11 396 -81 b 119 160 181 -81 119 11 z "},"₁":{"ha":303,"x_min":0,"x_max":0,"o":"m 161 392 l 161 -139 l 238 -139 l 238 463 l 29 463 l 29 392 z "},"₂":{"ha":478,"x_min":0,"x_max":0,"o":"m 442 -139 l 442 -68 l 156 -68 l 301 50 b 435 278 390 122 435 196 b 239 474 435 399 360 474 b 39 261 118 474 39 390 l 114 261 b 238 401 114 350 160 401 b 358 275 317 401 358 358 b 253 99 358 214 324 156 l 39 -76 l 39 -139 z "},"₃":{"ha":481,"x_min":0,"x_max":0,"o":"m 197 172 b 249 171 225 172 233 172 b 367 49 326 161 367 114 b 233 -79 367 -31 311 -79 b 106 47 156 -79 106 -31 l 31 47 b 233 -149 31 -69 113 -149 b 444 47 351 -149 444 -74 b 263 236 444 160 363 228 l 431 390 l 431 463 l 60 463 l 60 392 l 342 392 l 158 226 l 158 172 z "},"₄":{"ha":522,"x_min":0,"x_max":0,"o":"m 496 -18 l 496 51 l 424 51 l 424 463 l 325 463 l 29 53 l 29 -18 l 350 -18 l 350 -139 l 424 -139 l 424 -18 z m 117 51 l 350 378 l 350 51 z "},"₅":{"ha":490,"x_min":0,"x_max":0,"o":"m 31 56 b 244 -149 31 -62 122 -149 b 460 60 369 -149 460 -61 b 256 265 460 179 374 265 b 142 229 211 265 172 253 l 182 392 l 425 392 l 425 463 l 125 463 l 50 156 l 122 143 b 244 199 154 181 194 199 b 382 61 326 199 382 143 b 244 -79 382 -22 325 -79 b 106 56 164 -79 106 -24 z "},"₆":{"ha":518,"x_min":0,"x_max":0,"o":"m 119 269 b 39 71 61 192 39 142 b 261 -149 39 -53 136 -149 b 479 71 383 -149 479 -57 b 267 281 479 190 394 281 b 200 267 244 281 222 276 l 350 465 l 263 465 z m 118 68 b 261 214 118 151 175 214 b 401 68 343 214 401 151 b 261 -79 401 -17 343 -79 b 118 68 175 -79 118 -17 z "},"₇":{"ha":447,"x_min":0,"x_max":0,"o":"m 426 392 l 426 463 l 22 463 l 22 392 l 350 392 l 131 -139 l 208 -139 z "},"₈":{"ha":511,"x_min":0,"x_max":0,"o":"m 39 24 b 256 -149 39 -82 129 -149 b 472 24 382 -149 472 -82 b 357 181 472 97 429 160 b 447 315 414 203 447 253 b 257 474 447 414 367 474 b 65 317 144 474 65 413 b 154 182 65 254 97 204 b 39 24 83 158 39 97 z m 132 311 b 256 406 132 372 185 406 b 378 310 326 406 378 372 b 256 211 378 253 332 211 b 132 311 176 211 132 254 z m 117 33 b 256 144 117 107 176 144 b 396 33 335 144 396 104 b 256 -79 396 -39 335 -79 b 117 33 178 -79 117 -39 z "},"₉":{"ha":518,"x_min":0,"x_max":0,"o":"m 400 57 b 479 257 458 135 479 186 b 258 476 479 381 382 476 b 39 257 135 476 39 383 b 251 46 39 136 125 46 b 318 60 275 46 297 50 l 169 -139 l 256 -139 z m 401 258 b 258 114 401 175 343 114 b 117 258 175 114 117 175 b 258 406 117 343 175 406 b 401 258 343 406 401 343 z "},"⁰":{"ha":576,"x_min":0,"x_max":0,"o":"m 43 747 b 289 436 43 561 135 436 b 535 747 440 436 535 561 b 289 1060 535 933 443 1060 b 43 747 138 1060 43 933 z m 119 747 b 289 989 119 897 181 989 b 457 747 396 989 457 897 b 289 506 457 597 396 506 b 119 747 181 506 119 597 z "},"¹":{"ha":303,"x_min":0,"x_max":0,"o":"m 161 989 l 161 458 l 238 458 l 238 1060 l 29 1060 l 29 989 z "},"²":{"ha":478,"x_min":0,"x_max":0,"o":"m 442 458 l 442 529 l 156 529 l 301 647 b 435 875 390 719 435 793 b 239 1071 435 996 360 1071 b 39 858 118 1071 39 988 l 114 858 b 238 999 114 947 160 999 b 358 872 317 999 358 956 b 253 696 358 811 324 753 l 39 521 l 39 458 z "},"³":{"ha":481,"x_min":0,"x_max":0,"o":"m 197 769 b 249 768 225 769 233 769 b 367 646 326 758 367 711 b 233 518 367 567 311 518 b 106 644 156 518 106 567 l 31 644 b 233 449 31 528 113 449 b 444 644 351 449 444 524 b 263 833 444 757 363 825 l 431 988 l 431 1060 l 60 1060 l 60 989 l 342 989 l 158 824 l 158 769 z "},"⁴":{"ha":517,"x_min":0,"x_max":0,"o":"m 496 579 l 496 649 l 424 649 l 424 1060 l 325 1060 l 29 650 l 29 579 l 350 579 l 350 458 l 424 458 l 424 579 z m 117 649 l 350 975 l 350 649 z "},"⁵":{"ha":490,"x_min":0,"x_max":0,"o":"m 31 653 b 244 449 31 535 122 449 b 460 657 369 449 460 536 b 256 863 460 776 374 863 b 142 826 211 863 172 850 l 182 989 l 425 989 l 425 1060 l 125 1060 l 50 753 l 122 740 b 244 796 154 778 194 796 b 382 658 326 796 382 740 b 244 518 382 575 325 518 b 106 653 164 518 106 574 z "},"⁶":{"ha":518,"x_min":0,"x_max":0,"o":"m 119 867 b 39 668 61 789 39 739 b 261 449 39 544 136 449 b 479 668 383 449 479 540 b 267 878 479 788 394 878 b 200 864 244 878 222 874 l 350 1063 l 263 1063 z m 118 665 b 261 811 118 749 175 811 b 401 665 343 811 401 749 b 261 518 401 581 343 518 b 118 665 175 518 118 581 z "},"⁷":{"ha":447,"x_min":0,"x_max":0,"o":"m 426 989 l 426 1060 l 22 1060 l 22 989 l 350 989 l 131 458 l 208 458 z "},"⁸":{"ha":511,"x_min":0,"x_max":0,"o":"m 39 621 b 256 449 39 515 129 449 b 472 621 382 449 472 515 b 357 778 472 694 429 757 b 447 913 414 800 447 850 b 257 1071 447 1011 367 1071 b 65 914 144 1071 65 1010 b 154 779 65 851 97 801 b 39 621 83 756 39 694 z m 132 908 b 256 1003 132 969 185 1003 b 378 907 326 1003 378 969 b 256 808 378 850 332 808 b 132 908 176 808 132 851 z m 117 631 b 256 742 117 704 176 742 b 396 631 335 742 396 701 b 256 518 396 558 335 518 b 117 631 178 518 117 558 z "},"⁹":{"ha":518,"x_min":0,"x_max":0,"o":"m 400 654 b 479 854 458 732 479 783 b 258 1074 479 978 382 1074 b 39 854 135 1074 39 981 b 251 643 39 733 125 643 b 318 657 275 643 297 647 l 169 458 l 256 458 z m 401 856 b 258 711 401 772 343 711 b 117 856 175 711 117 772 b 258 1003 117 940 175 1003 b 401 856 343 1003 401 940 z "},"⁄":{"ha":163,"x_min":0,"x_max":0,"o":"m 444 986 l 356 986 l -282 0 l -194 0 z "},"½":{"ha":881,"x_min":0,"x_max":0,"o":"m 138 932 l 138 529 l 206 529 l 206 994 l 28 994 l 28 932 z m 769 986 l 681 986 l 43 0 l 131 0 z m 850 0 l 850 63 l 643 63 l 722 126 b 840 319 808 197 840 250 b 681 472 840 413 776 472 b 518 318 583 472 518 410 l 588 318 b 679 410 588 374 624 410 b 768 317 735 410 768 374 b 678 171 768 267 744 226 l 526 49 l 526 0 z "},"¼":{"ha":838,"x_min":0,"x_max":0,"o":"m 138 932 l 138 529 l 206 529 l 206 994 l 28 994 l 28 932 z m 769 986 l 681 986 l 43 0 l 131 0 z m 678 93 l 678 0 l 744 0 l 744 93 l 803 93 l 803 156 l 744 156 l 744 465 l 661 465 l 439 154 l 439 93 z m 514 156 l 678 385 l 678 156 z "},"¾":{"ha":896,"x_min":0,"x_max":0,"o":"m 29 676 b 190 521 29 582 97 521 b 353 675 288 521 353 581 b 219 818 353 756 297 810 l 343 932 l 343 994 l 51 994 l 51 931 l 254 931 l 128 813 l 128 765 l 165 765 b 283 669 242 765 283 729 b 192 585 283 618 249 585 b 100 676 135 585 100 621 z m 828 986 l 739 986 l 101 0 l 189 0 z m 736 93 l 736 0 l 803 0 l 803 93 l 861 93 l 861 156 l 803 156 l 803 465 l 719 465 l 497 154 l 497 93 z m 574 156 l 736 383 l 736 156 z "},"⅛":{"ha":899,"x_min":0,"x_max":0,"o":"m 138 932 l 138 529 l 206 529 l 206 994 l 28 994 l 28 932 z m 769 986 l 681 986 l 43 0 l 131 0 z m 525 126 b 693 -7 525 44 593 -7 b 861 126 792 -7 861 44 b 772 247 861 183 828 231 b 842 351 814 264 842 303 b 693 472 842 426 779 472 b 544 351 607 472 544 425 b 613 247 544 304 571 265 b 525 126 558 229 525 183 z m 607 344 b 693 411 607 388 643 411 b 779 344 743 411 779 388 b 693 275 779 303 746 275 b 607 344 638 275 607 304 z m 594 135 b 693 213 594 186 638 213 b 790 135 747 213 790 186 b 693 56 790 85 749 56 b 594 135 638 56 594 83 z "},"⅜":{"ha":957,"x_min":0,"x_max":0,"o":"m 29 676 b 190 521 29 582 97 521 b 353 675 288 521 353 581 b 219 818 353 756 297 810 l 343 932 l 343 994 l 51 994 l 51 931 l 254 931 l 128 813 l 128 765 l 165 765 b 283 669 242 765 283 729 b 192 585 283 618 249 585 b 100 676 135 585 100 621 z m 828 986 l 739 986 l 101 0 l 189 0 z m 583 126 b 751 -7 583 44 653 -7 b 919 126 850 -7 919 44 b 831 247 919 183 886 231 b 900 351 872 264 900 303 b 751 472 900 426 838 472 b 603 351 665 472 603 425 b 671 247 603 304 629 265 b 583 126 618 229 583 183 z m 665 344 b 751 411 665 388 701 411 b 838 344 801 411 838 388 b 751 275 838 303 804 275 b 665 344 696 275 665 304 z m 654 135 b 751 213 654 186 697 213 b 850 135 807 213 850 186 b 751 56 850 85 808 56 b 654 135 696 56 654 83 z "},"⅝":{"ha":978,"x_min":0,"x_max":0,"o":"m 200 522 b 369 686 300 522 369 590 b 210 844 369 775 310 844 b 126 818 174 844 147 835 l 156 931 l 346 931 l 346 994 l 106 994 l 46 754 l 111 743 b 200 786 131 769 163 786 b 300 686 261 786 300 744 b 201 586 300 628 261 586 b 104 682 143 586 104 624 l 33 682 b 200 522 33 586 106 522 z m 849 986 l 760 986 l 121 0 l 208 0 z m 603 126 b 771 -7 603 44 672 -7 b 939 126 871 -7 939 44 b 851 247 939 183 906 231 b 919 351 893 264 919 303 b 772 472 919 426 857 472 b 624 351 686 472 624 425 b 690 247 624 304 650 265 b 603 126 638 229 603 183 z m 685 344 b 771 411 685 388 721 411 b 857 344 821 411 857 388 b 771 275 857 303 825 275 b 685 344 715 275 685 304 z m 674 135 b 771 213 674 186 717 213 b 869 135 826 213 869 186 b 771 56 869 85 828 56 b 674 135 717 56 674 83 z "},"⅞":{"ha":875,"x_min":0,"x_max":0,"o":"m 271 929 l 89 529 l 163 529 l 340 929 l 340 994 l 17 994 l 17 929 z m 746 986 l 657 986 l 19 0 l 107 0 z m 501 126 b 669 -7 501 44 571 -7 b 838 126 768 -7 838 44 b 749 247 838 183 804 231 b 818 351 790 264 818 303 b 669 472 818 426 756 472 b 521 351 583 472 521 425 b 589 247 521 304 547 265 b 501 126 535 229 501 183 z m 583 344 b 669 411 583 388 619 411 b 756 344 719 411 756 388 b 669 275 756 303 722 275 b 583 344 614 275 583 304 z m 571 135 b 669 213 571 186 614 213 b 767 135 724 213 767 186 b 669 56 767 85 725 56 b 571 135 614 56 571 83 z "},"*":{"ha":560,"x_min":0,"x_max":0,"o":"m 128 790 b 244 761 168 775 203 767 b 165 669 219 738 194 713 l 114 594 l 168 557 l 222 631 b 278 736 253 674 268 704 b 336 631 290 706 307 672 l 389 557 l 443 594 l 392 669 b 314 761 361 713 342 736 b 431 790 346 765 383 774 l 519 821 l 493 883 l 408 853 b 300 801 360 836 331 819 b 313 921 307 835 313 871 l 313 1014 l 247 1014 l 247 921 b 260 801 247 871 251 836 b 149 853 229 821 199 836 l 64 882 l 40 821 z "},"⁂":{"ha":1219,"x_min":0,"x_max":0,"o":"m 457 796 b 575 768 506 779 543 772 b 496 676 550 744 526 718 l 443 601 l 499 563 l 551 638 b 608 743 581 678 597 710 b 667 638 619 713 636 679 l 718 563 l 772 601 l 721 676 b 643 768 690 719 671 743 b 760 796 676 772 713 779 l 847 828 l 824 889 l 739 860 b 629 807 689 842 665 829 b 640 928 638 842 640 876 l 640 1019 l 575 1019 l 575 928 b 588 807 575 876 581 843 b 479 860 558 826 528 843 l 396 888 l 371 828 z m 129 268 b 246 242 179 250 215 246 b 167 149 221 217 197 190 l 115 74 l 168 36 l 224 110 b 278 217 253 151 268 183 b 338 110 290 186 307 153 l 389 38 l 443 74 l 393 149 b 314 242 361 192 343 211 b 432 269 347 246 385 253 l 519 300 l 494 363 l 410 333 b 301 281 361 315 331 300 b 313 401 308 314 313 350 l 313 493 l 247 493 l 247 401 b 260 281 247 350 253 315 b 150 333 231 300 199 315 l 65 363 l 40 300 z m 788 268 b 904 242 838 250 874 246 b 825 149 878 217 854 190 l 772 74 l 826 36 l 881 110 b 936 217 910 151 925 183 b 996 110 949 186 965 153 l 1047 38 l 1101 74 l 1050 149 b 972 242 1019 192 1001 211 b 1089 269 1006 246 1042 253 l 1178 300 l 1153 363 l 1067 333 b 960 281 1018 315 990 300 b 971 401 967 314 971 350 l 971 493 l 904 493 l 904 401 b 917 281 904 350 910 315 b 807 333 888 300 856 315 l 724 361 l 699 300 z "},"\\":{"ha":485,"x_min":0,"x_max":0,"o":"m 96 994 l 0 994 l 389 0 l 485 0 z "},"·":{"ha":382,"x_min":0,"x_max":0,"o":"m 192 238 b 311 356 256 238 311 292 b 192 476 311 422 257 476 b 71 356 125 476 71 422 b 192 238 71 292 126 238 z "},"•":{"ha":522,"x_min":0,"x_max":0,"o":"m 263 176 b 451 365 365 176 451 264 b 263 556 451 468 365 556 b 71 365 157 556 71 468 b 263 176 71 263 158 176 z "},":":{"ha":392,"x_min":0,"x_max":0,"o":"m 196 517 b 283 603 243 517 283 557 b 196 689 283 650 243 689 b 108 603 149 689 108 650 b 196 517 108 557 149 517 z m 196 -15 b 283 69 243 -15 283 24 b 196 157 283 117 243 157 b 108 69 149 157 108 117 b 196 -15 108 24 149 -15 z "},",":{"ha":364,"x_min":0,"x_max":0,"o":"m 269 47 b 176 157 269 117 226 157 b 94 74 128 157 94 122 b 167 -1 94 26 128 -1 b 203 8 183 -1 194 3 b 117 -75 203 -31 167 -67 l 117 -126 b 269 47 203 -114 269 -39 z "},"…":{"ha":961,"x_min":0,"x_max":0,"o":"m 182 -15 b 269 69 229 -15 269 24 b 182 157 269 117 229 157 b 94 69 135 157 94 117 b 182 -15 94 24 135 -15 z m 481 -15 b 568 69 528 -15 568 24 b 481 157 568 117 528 157 b 393 69 432 157 393 117 b 481 -15 393 24 432 -15 z m 778 -15 b 865 69 825 -15 865 24 b 778 157 865 117 825 157 b 692 69 731 157 692 117 b 778 -15 692 24 731 -15 z "},"!":{"ha":376,"x_min":0,"x_max":0,"o":"m 222 299 b 240 760 233 397 240 579 l 240 994 l 136 994 l 136 760 b 153 299 136 581 142 397 z m 189 -19 b 275 68 235 -19 275 21 b 189 154 275 115 235 154 b 101 68 140 154 101 115 b 189 -19 101 21 140 -19 z "},"¡":{"ha":376,"x_min":0,"x_max":0,"o":"m 189 1014 b 101 928 140 1014 101 975 b 189 840 101 881 140 840 b 275 928 235 840 275 881 b 189 1014 275 975 235 1014 z m 153 697 b 136 235 142 597 136 415 l 136 0 l 240 0 l 240 235 b 222 697 240 417 233 599 z "},"#":{"ha":938,"x_min":0,"x_max":0,"o":"m 83 383 l 65 293 l 211 293 l 153 0 l 249 0 l 306 293 l 550 293 l 492 0 l 588 0 l 646 293 l 800 293 l 817 383 l 663 383 l 708 611 l 854 611 l 872 701 l 725 701 l 783 994 l 688 994 l 629 701 l 386 701 l 443 994 l 349 994 l 290 701 l 121 701 l 104 611 l 274 611 l 228 383 z m 324 383 l 368 611 l 613 611 l 567 383 z "},".":{"ha":364,"x_min":0,"x_max":0,"o":"m 182 -15 b 269 69 229 -15 269 24 b 182 157 269 117 229 157 b 94 69 135 157 94 117 b 182 -15 94 24 135 -15 z "},"?":{"ha":715,"x_min":0,"x_max":0,"o":"m 368 228 l 368 264 b 494 439 368 338 417 383 b 668 714 576 500 668 571 b 360 1013 668 883 550 1013 b 47 704 185 1013 47 878 l 144 704 b 360 921 144 825 239 921 b 569 711 488 921 569 829 b 429 497 569 610 501 553 b 278 264 351 439 278 378 l 278 228 z m 329 -19 b 415 68 376 -19 415 21 b 329 154 415 115 376 154 b 242 68 281 154 242 115 b 329 -19 242 21 281 -19 z "},"¿":{"ha":715,"x_min":0,"x_max":0,"o":"m 386 1014 b 300 926 340 1014 300 974 b 386 840 300 879 340 840 b 475 926 435 840 475 879 b 386 1014 475 974 435 1014 z m 347 767 l 347 729 b 222 556 347 656 299 611 b 47 279 139 494 47 424 b 356 -18 47 110 165 -18 b 668 290 531 -18 668 115 l 571 290 b 357 74 571 168 476 74 b 146 283 228 74 146 165 b 288 496 146 385 215 440 b 438 729 365 556 438 617 l 438 767 z "},"\"":{"ha":440,"x_min":0,"x_max":0,"o":"m 181 926 b 124 997 186 975 153 997 b 64 926 93 997 58 975 l 92 650 l 154 650 z m 376 926 b 319 997 382 975 349 997 b 260 926 289 997 254 975 l 288 650 l 350 650 z "},"'":{"ha":244,"x_min":0,"x_max":0,"o":"m 181 926 b 124 997 186 975 153 997 b 64 926 93 997 58 975 l 92 650 l 154 650 z "},";":{"ha":392,"x_min":0,"x_max":0,"o":"m 196 517 b 283 603 243 517 283 557 b 196 689 283 650 243 689 b 108 603 149 689 108 650 b 196 517 108 557 149 517 z m 283 47 b 190 157 283 117 240 157 b 108 74 142 157 108 122 b 181 -1 108 26 142 -1 b 217 8 197 -1 208 3 b 131 -75 217 -31 181 -67 l 131 -126 b 283 47 217 -114 283 -39 z "},"/":{"ha":485,"x_min":0,"x_max":0,"o":"m 94 0 l 485 994 l 388 994 l 0 0 z "},"_":{"ha":719,"x_min":0,"x_max":0,"o":"m 83 -108 l 636 -108 l 636 -26 l 83 -26 z "},"{":{"ha":406,"x_min":0,"x_max":0,"o":"m 63 460 b 183 363 156 460 183 418 l 183 49 b 321 -82 183 -29 235 -82 l 399 -82 l 399 -4 l 329 -4 b 271 57 293 -4 271 21 l 271 368 b 181 501 271 436 246 479 b 271 632 246 521 271 564 l 271 943 b 329 1004 271 979 293 1004 l 399 1004 l 399 1082 l 321 1082 b 183 951 235 1082 183 1029 l 183 638 b 63 542 183 582 156 542 z "},"}":{"ha":406,"x_min":0,"x_max":0,"o":"m 85 -82 b 222 49 169 -82 222 -29 l 222 363 b 343 460 222 418 250 460 l 343 542 b 222 638 250 542 222 582 l 222 951 b 85 1082 222 1029 169 1082 l 7 1082 l 7 1004 l 75 1004 b 135 943 113 1004 135 979 l 135 632 b 224 501 135 564 158 521 b 135 368 158 479 135 436 l 135 57 b 75 -4 135 21 113 -4 l 7 -4 l 7 -82 z "},"[":{"ha":354,"x_min":0,"x_max":0,"o":"m 160 -4 l 160 1004 l 347 1004 l 347 1082 l 72 1082 l 72 -82 l 347 -82 l 347 -4 z "},"]":{"ha":354,"x_min":0,"x_max":0,"o":"m 7 -82 l 282 -82 l 282 1082 l 7 1082 l 7 1004 l 194 1004 l 194 -4 l 7 -4 z "},"(":{"ha":353,"x_min":0,"x_max":0,"o":"m 353 -218 b 171 417 243 -65 171 172 b 353 1050 171 667 246 900 l 265 1050 b 72 417 146 885 72 646 b 265 -218 72 178 149 -58 z "},")":{"ha":353,"x_min":0,"x_max":0,"o":"m 88 -218 b 281 417 204 -58 281 178 b 88 1050 281 646 208 885 l 0 1050 b 183 417 107 900 183 667 b 0 -218 183 172 110 -65 z "},"—":{"ha":1581,"x_min":0,"x_max":0,"o":"m 92 322 l 1489 322 l 1489 407 l 92 407 z "},"–":{"ha":1288,"x_min":0,"x_max":0,"o":"m 92 322 l 1196 322 l 1196 407 l 92 407 z "},"-":{"ha":581,"x_min":0,"x_max":0,"o":"m 89 322 l 492 322 l 492 408 l 89 408 z "},"«":{"ha":825,"x_min":0,"x_max":0,"o":"m 350 0 l 463 0 l 168 336 l 463 672 l 350 672 l 56 336 z m 657 0 l 769 0 l 475 336 l 769 672 l 657 672 l 363 336 z "},"»":{"ha":825,"x_min":0,"x_max":0,"o":"m 168 0 l 463 336 l 168 672 l 56 672 l 350 336 l 56 0 z m 475 0 l 769 336 l 475 672 l 363 672 l 657 336 l 363 0 z "},"‹":{"ha":518,"x_min":0,"x_max":0,"o":"m 350 0 l 463 0 l 168 336 l 463 672 l 350 672 l 56 336 z "},"›":{"ha":518,"x_min":0,"x_max":0,"o":"m 168 0 l 463 336 l 168 672 l 56 672 l 350 336 l 56 0 z "},"„":{"ha":565,"x_min":0,"x_max":0,"o":"m 256 44 b 167 151 256 113 214 151 b 85 71 118 151 85 117 b 153 -4 85 22 117 -4 b 190 6 169 -4 182 -1 b 106 -78 190 -33 154 -69 l 106 -129 b 256 44 192 -117 256 -43 z m 481 44 b 390 151 481 113 439 151 b 308 71 342 151 308 117 b 378 -4 308 22 342 -4 b 415 6 396 -4 407 0 b 331 -78 415 -33 379 -69 l 331 -129 b 481 44 415 -117 481 -43 z "},"“":{"ha":565,"x_min":0,"x_max":0,"o":"m 256 813 b 188 888 256 861 224 888 b 150 878 169 888 158 883 b 235 963 150 918 186 953 l 235 1014 b 85 840 150 1000 85 926 b 175 732 85 771 126 732 b 256 813 224 732 256 767 z m 481 813 b 413 888 481 861 449 888 b 375 879 396 888 383 885 b 460 963 375 918 411 953 l 460 1014 b 308 840 374 1000 308 926 b 399 732 308 771 351 732 b 481 813 447 732 481 767 z "},"”":{"ha":565,"x_min":0,"x_max":0,"o":"m 256 906 b 167 1014 256 974 214 1014 b 85 932 118 1014 85 979 b 153 858 85 885 117 858 b 190 867 169 858 182 861 b 106 783 190 828 154 793 l 106 732 b 256 906 192 744 256 818 z m 481 906 b 390 1014 481 974 439 1014 b 308 932 342 1014 308 979 b 378 858 308 885 342 858 b 415 868 396 858 407 863 b 331 783 415 828 379 793 l 331 732 b 481 906 415 744 481 818 z "},"‘":{"ha":340,"x_min":0,"x_max":0,"o":"m 256 813 b 188 888 256 861 224 888 b 150 878 169 888 158 883 b 235 963 150 918 186 953 l 235 1014 b 85 840 150 1000 85 926 b 175 732 85 771 126 732 b 256 813 224 732 256 767 z "},"’":{"ha":340,"x_min":0,"x_max":0,"o":"m 256 906 b 167 1014 256 974 214 1014 b 85 932 118 1014 85 979 b 153 858 85 885 117 858 b 190 867 169 858 182 861 b 106 783 190 828 154 793 l 106 732 b 256 906 192 744 256 818 z "},"‚":{"ha":340,"x_min":0,"x_max":0,"o":"m 256 44 b 167 151 256 113 214 151 b 85 71 118 151 85 117 b 153 -4 85 22 117 -4 b 190 6 169 -4 182 -1 b 106 -78 190 -33 154 -69 l 106 -129 b 256 44 192 -117 256 -43 z "}," ":{"ha":385,"x_min":0,"x_max":0,"o":""},"¢":{"ha":764,"x_min":0,"x_max":0,"o":"m 354 -1 l 440 -1 l 440 147 b 703 374 581 161 675 247 l 606 374 b 400 235 578 288 511 235 b 164 496 263 235 164 339 b 396 760 164 657 260 760 b 603 618 500 760 578 711 l 701 618 b 440 844 676 743 582 829 l 440 994 l 354 994 l 354 844 b 67 494 181 826 67 688 b 354 149 67 303 186 169 z "},"¤":{"ha":872,"x_min":0,"x_max":0,"o":"m 735 132 l 800 197 l 692 304 b 753 490 731 356 753 421 b 690 681 753 561 729 628 l 800 788 l 735 853 l 626 746 b 435 808 574 785 507 808 b 246 746 364 808 299 785 l 138 853 l 72 788 l 182 681 b 119 490 143 628 119 561 b 181 304 119 421 143 356 l 72 197 l 138 132 l 246 239 b 435 175 299 199 364 175 b 626 239 507 175 574 199 z m 663 490 b 435 267 663 368 560 267 b 210 490 313 267 210 368 b 435 718 210 615 311 718 b 663 490 561 718 663 615 z "},"$":{"ha":782,"x_min":0,"x_max":0,"o":"m 353 -137 l 426 -137 l 426 -15 b 724 265 608 -1 724 106 b 488 525 724 399 644 486 l 426 540 l 426 922 b 607 746 533 911 597 850 l 707 746 b 426 1011 693 903 588 1000 l 426 1132 l 353 1132 l 353 1011 b 61 736 176 997 61 890 b 299 475 61 600 143 513 l 353 461 l 353 75 b 151 247 233 85 157 150 l 49 247 b 353 -15 60 94 178 -6 z m 317 567 b 160 738 211 593 160 650 b 353 921 160 839 235 908 l 353 558 z m 467 433 b 625 260 574 408 625 350 b 426 75 625 157 549 88 l 426 443 z "},"€":{"ha":910,"x_min":0,"x_max":0,"o":"m 644 -17 b 833 10 707 -17 775 -7 l 833 106 b 650 76 782 89 713 76 b 250 360 449 76 299 179 l 668 360 l 668 439 l 236 439 b 233 497 235 458 233 478 b 236 560 233 519 235 540 l 668 560 l 668 639 l 251 639 b 650 917 301 815 447 917 b 831 890 707 917 781 907 l 831 985 b 650 1011 783 1001 713 1011 b 150 639 393 1011 204 869 l 39 639 l 39 560 l 138 560 b 135 497 136 539 135 518 b 138 439 135 478 136 458 l 39 439 l 39 360 l 150 360 b 644 -17 203 122 396 -17 z "},"ƒ":{"ha":774,"x_min":0,"x_max":0,"o":"m 101 558 l 101 468 l 338 468 l 269 -14 b 193 -83 263 -57 231 -83 l 58 -83 l 58 -175 l 192 -175 b 367 -21 289 -175 353 -122 l 436 468 l 690 468 l 690 558 l 450 558 l 489 835 b 565 907 496 883 524 907 l 692 907 l 692 999 l 575 999 b 390 838 468 999 404 940 l 350 558 z "},"£":{"ha":846,"x_min":0,"x_max":0,"o":"m 499 0 b 786 310 690 0 786 104 l 690 310 b 492 92 690 160 635 92 l 183 92 b 315 315 264 125 315 218 b 292 461 315 368 306 417 l 607 461 l 607 543 l 263 543 b 218 725 239 604 218 661 b 429 922 218 847 299 922 b 643 742 554 922 632 858 l 746 742 b 432 1013 731 911 608 1013 b 119 725 244 1013 119 894 b 160 543 119 661 139 601 l 51 543 l 51 461 l 190 461 b 218 315 206 414 218 367 b 44 92 218 208 149 111 l 44 0 z "},"¥":{"ha":824,"x_min":0,"x_max":0,"o":"m 335 478 l 117 478 l 117 399 l 367 399 l 367 297 l 117 297 l 117 219 l 367 219 l 367 0 l 461 0 l 461 219 l 710 219 l 710 297 l 461 297 l 461 399 l 710 399 l 710 478 l 493 478 l 796 994 l 685 994 l 414 511 l 140 994 l 28 994 z "},"+":{"ha":917,"x_min":0,"x_max":0,"o":"m 111 511 l 111 425 l 415 425 l 415 119 l 501 119 l 501 425 l 806 425 l 806 511 l 501 511 l 501 815 l 415 815 l 415 511 z "},"−":{"ha":917,"x_min":0,"x_max":0,"o":"m 111 511 l 111 425 l 806 425 l 806 511 z "},"×":{"ha":917,"x_min":0,"x_max":0,"o":"m 207 781 l 146 719 l 397 468 l 144 215 l 206 154 l 458 407 l 711 154 l 772 215 l 519 468 l 772 719 l 711 781 l 458 529 z "},"÷":{"ha":917,"x_min":0,"x_max":0,"o":"m 458 606 b 543 689 504 606 543 644 b 458 774 543 735 504 774 b 374 689 413 774 374 735 b 458 606 374 644 413 606 z m 111 463 l 111 376 l 806 376 l 806 463 z m 458 64 b 543 147 504 64 543 103 b 458 232 543 193 504 232 b 374 147 413 232 374 193 b 458 64 374 103 413 64 z "},"=":{"ha":917,"x_min":0,"x_max":0,"o":"m 111 597 l 111 511 l 806 511 l 806 597 z m 111 311 l 111 225 l 806 225 l 806 311 z "},"≠":{"ha":917,"x_min":0,"x_max":0,"o":"m 201 26 l 297 26 l 406 225 l 806 225 l 806 311 l 451 311 l 561 511 l 806 511 l 806 597 l 607 597 l 715 796 l 619 796 l 511 597 l 111 597 l 111 511 l 465 511 l 356 311 l 111 311 l 111 225 l 310 225 z "},">":{"ha":917,"x_min":0,"x_max":0,"o":"m 806 292 l 806 389 l 111 638 l 111 542 l 699 340 l 111 138 l 111 43 z "},"<":{"ha":917,"x_min":0,"x_max":0,"o":"m 806 138 l 218 340 l 806 542 l 806 638 l 111 389 l 111 292 l 806 43 z "},"≥":{"ha":917,"x_min":0,"x_max":0,"o":"m 806 403 l 806 501 l 111 747 l 111 651 l 699 453 l 111 253 l 111 158 z m 111 86 l 111 0 l 806 0 l 806 86 z "},"≤":{"ha":917,"x_min":0,"x_max":0,"o":"m 806 253 l 218 453 l 806 651 l 806 747 l 111 501 l 111 403 l 806 158 z m 111 0 l 806 0 l 806 86 l 111 86 z "},"±":{"ha":917,"x_min":0,"x_max":0,"o":"m 111 564 l 111 479 l 415 479 l 415 218 l 501 218 l 501 479 l 806 479 l 806 564 l 501 564 l 501 824 l 415 824 l 415 564 z m 111 0 l 806 0 l 806 86 l 111 86 z "},"≈":{"ha":917,"x_min":0,"x_max":0,"o":"m 725 639 b 631 513 721 551 693 513 b 283 647 521 513 408 647 b 111 442 178 647 111 564 l 192 442 b 286 564 196 528 224 564 b 633 429 388 564 496 429 b 806 639 739 429 806 513 z m 725 385 b 631 260 721 299 693 260 b 283 394 521 260 408 394 b 111 189 178 394 111 311 l 192 189 b 286 310 196 274 224 310 b 633 175 388 310 496 175 b 806 385 739 175 806 260 z "},"~":{"ha":917,"x_min":0,"x_max":0,"o":"m 725 511 b 631 385 721 424 693 385 b 283 519 521 385 408 519 b 111 314 178 519 111 436 l 192 314 b 286 435 196 399 224 435 b 633 300 388 435 496 300 b 806 511 739 300 806 385 z "},"¬":{"ha":917,"x_min":0,"x_max":0,"o":"m 760 468 l 104 468 l 104 382 l 667 382 l 667 111 l 760 111 z "},"∅":{"ha":1113,"x_min":0,"x_max":0,"o":"m 554 -17 b 1039 497 829 -17 1039 199 b 949 807 1039 617 1006 722 l 1075 922 l 1025 976 l 903 865 b 554 1013 815 958 693 1013 b 69 497 279 1013 69 797 b 161 188 69 378 103 272 l 38 75 l 88 21 l 207 129 b 554 -17 293 38 415 -17 z m 168 497 b 554 919 168 746 333 919 b 832 800 665 919 763 875 l 233 253 b 168 497 192 321 168 404 z m 554 75 b 278 194 443 75 346 119 l 876 742 b 942 497 918 674 942 592 b 554 75 942 250 776 75 z "},"∞":{"ha":1193,"x_min":0,"x_max":0,"o":"m 78 392 b 326 146 78 247 182 146 b 597 324 439 146 518 204 b 867 146 675 204 754 146 b 1115 392 1011 146 1115 247 b 867 638 1115 535 1013 638 b 597 458 754 638 675 578 b 326 638 518 578 439 638 b 78 392 181 638 78 535 z m 171 392 b 332 550 171 488 233 550 b 536 392 410 550 478 499 b 332 232 478 283 410 232 b 171 392 235 232 171 294 z m 657 392 b 861 550 715 499 783 550 b 1022 392 960 550 1022 488 b 861 232 1022 294 958 232 b 657 392 783 232 715 283 z "},"∫":{"ha":515,"x_min":0,"x_max":0,"o":"m 147 -19 b 306 143 238 -19 306 50 l 306 857 b 371 928 306 900 333 928 l 474 928 l 474 1014 l 368 1014 b 210 853 278 1014 210 946 l 210 139 b 144 68 210 96 182 68 l 42 68 l 42 -19 z "},"∆":{"ha":922,"x_min":0,"x_max":0,"o":"m 864 0 l 864 83 l 519 994 l 400 994 l 58 88 l 58 0 z m 447 861 b 458 894 450 868 457 886 b 469 861 461 886 465 872 l 764 83 l 157 83 z "},"∏":{"ha":935,"x_min":0,"x_max":0,"o":"m 221 0 l 221 903 l 713 903 l 713 0 l 813 0 l 813 994 l 121 994 l 121 0 z "},"∑":{"ha":740,"x_min":0,"x_max":0,"o":"m 682 0 l 682 92 l 146 92 l 463 494 l 146 903 l 682 903 l 682 994 l 36 994 l 36 890 l 344 497 l 36 104 l 36 0 z "},"√":{"ha":964,"x_min":0,"x_max":0,"o":"m 275 0 l 367 0 l 715 906 l 914 906 l 914 996 l 649 996 l 321 121 l 101 671 l 0 671 z "},"µ":{"ha":768,"x_min":0,"x_max":0,"o":"m 188 -293 l 182 57 b 347 -17 215 14 275 -17 b 572 114 451 -17 535 36 l 585 0 l 668 0 l 668 672 l 572 672 l 572 315 b 367 69 572 156 496 69 b 189 286 260 69 189 126 l 189 674 l 92 674 l 92 -293 z "},"∂":{"ha":864,"x_min":0,"x_max":0,"o":"m 79 340 b 425 -17 79 131 232 -17 b 785 382 632 -17 785 133 b 453 1008 785 629 675 819 l 329 1008 b 665 578 508 854 608 743 b 425 693 607 653 518 693 b 79 340 235 693 79 543 z m 176 339 b 436 607 176 493 285 607 b 688 344 583 607 688 497 b 429 69 688 183 579 69 b 176 339 282 69 176 181 z "},"%":{"ha":1263,"x_min":0,"x_max":0,"o":"m 554 767 b 311 1014 554 910 453 1014 b 67 767 169 1014 67 910 b 311 521 67 624 169 521 b 554 767 453 521 554 624 z m 1058 994 l 957 994 l 203 0 l 303 0 z m 471 767 b 311 600 471 669 404 600 b 150 767 217 600 150 669 b 311 933 150 865 215 933 b 471 767 406 933 471 865 z m 1196 228 b 953 475 1196 371 1094 475 b 708 228 811 475 708 371 b 953 -18 708 85 811 -18 b 1196 228 1094 -18 1196 85 z m 1113 228 b 953 63 1113 131 1046 63 b 792 228 858 63 792 131 b 953 394 792 326 857 394 b 1113 228 1047 394 1113 326 z "},"‰":{"ha":1797,"x_min":0,"x_max":0,"o":"m 554 767 b 311 1014 554 910 453 1014 b 67 767 169 1014 67 910 b 311 521 67 624 169 521 b 554 767 453 521 554 624 z m 1058 994 l 957 994 l 203 0 l 303 0 z m 471 767 b 311 600 471 669 404 600 b 150 767 217 600 150 669 b 311 933 150 865 215 933 b 471 767 406 933 471 865 z m 1196 228 b 953 475 1196 371 1094 475 b 708 228 811 475 708 371 b 953 -18 708 85 811 -18 b 1196 228 1094 -18 1196 85 z m 1731 228 b 1486 475 1731 371 1628 475 b 1243 228 1344 475 1243 371 b 1486 -18 1243 85 1344 -18 b 1731 228 1628 -18 1731 85 z m 1113 228 b 953 63 1113 131 1046 63 b 792 228 858 63 792 131 b 953 394 792 326 857 394 b 1113 228 1047 394 1113 326 z m 1647 228 b 1486 63 1647 131 1581 63 b 1326 228 1393 63 1326 131 b 1486 394 1326 326 1392 394 b 1647 228 1582 394 1647 326 z "},"↑":{"ha":1036,"x_min":0,"x_max":0,"o":"m 142 547 l 478 875 l 478 0 l 560 0 l 560 875 l 894 547 l 953 607 l 518 1033 l 83 607 z "},"↗":{"ha":1163,"x_min":0,"x_max":0,"o":"m 471 913 l 938 913 l 83 57 l 142 0 l 996 854 l 996 388 l 1079 388 l 1079 994 l 471 994 z "},"→":{"ha":1267,"x_min":0,"x_max":0,"o":"m 696 782 l 1025 450 l 83 450 l 83 369 l 1025 369 l 696 38 l 753 -19 l 1183 410 l 753 839 z "},"↘":{"ha":1160,"x_min":0,"x_max":0,"o":"m 994 611 l 993 143 l 140 994 l 83 938 l 936 85 l 468 85 l 468 3 l 1076 3 l 1076 610 z "},"↓":{"ha":1025,"x_min":0,"x_max":0,"o":"m 885 344 l 554 14 l 554 1003 l 472 1003 l 472 14 l 142 344 l 83 286 l 513 -144 l 942 286 z "},"↙":{"ha":1164,"x_min":0,"x_max":0,"o":"m 692 81 l 224 82 l 1081 938 l 1022 996 l 167 139 l 167 607 l 83 607 l 83 -1 l 692 -1 z "},"←":{"ha":1267,"x_min":0,"x_max":0,"o":"m 572 -18 l 242 313 l 1183 313 l 1183 394 l 242 394 l 572 726 l 514 783 l 83 353 l 514 -76 z "},"↖":{"ha":1154,"x_min":0,"x_max":0,"o":"m 83 994 l 83 386 l 165 386 l 165 854 l 1014 0 l 1071 57 l 224 911 l 692 913 l 692 994 z "},"↔":{"ha":1464,"x_min":0,"x_max":0,"o":"m 83 356 l 386 50 l 386 169 l 244 314 l 564 315 l 564 314 l 1218 315 l 1081 174 l 1081 50 l 1381 357 l 1079 661 l 1079 540 l 1219 399 l 903 400 l 561 400 l 561 399 l 246 397 l 385 539 l 385 661 z "},"↕":{"ha":776,"x_min":0,"x_max":0,"o":"m 388 -226 l 693 75 l 571 75 l 429 -64 l 429 910 l 571 771 l 693 771 l 388 1071 l 83 771 l 203 771 l 346 910 l 344 593 l 344 253 l 346 -64 l 203 75 l 83 75 z "},"●":{"ha":1250,"x_min":0,"x_max":0,"o":"m 625 -79 b 1167 463 924 -79 1167 164 b 625 1004 1167 761 924 1004 b 83 463 328 1004 83 761 b 625 -79 83 164 326 -79 z "},"○":{"ha":1250,"x_min":0,"x_max":0,"o":"m 625 -79 b 1167 463 924 -79 1167 164 b 625 1004 1167 761 924 1004 b 83 463 328 1004 83 761 b 625 -79 83 164 326 -79 z m 625 10 b 172 463 375 10 172 213 b 625 917 172 713 375 917 b 1079 463 874 917 1079 711 b 625 10 1079 213 875 10 z "},"◊":{"ha":839,"x_min":0,"x_max":0,"o":"m 756 493 l 468 986 l 369 986 l 83 493 l 369 0 l 468 0 z m 654 493 l 419 86 l 185 493 l 419 900 z "},"■":{"ha":1153,"x_min":0,"x_max":0,"o":"m 83 0 l 1069 0 l 1069 986 l 83 986 z "},"□":{"ha":1153,"x_min":0,"x_max":0,"o":"m 83 0 l 1069 0 l 1069 986 l 83 986 z m 986 903 l 986 83 l 167 83 l 167 903 z "},"▲":{"ha":1342,"x_min":0,"x_max":0,"o":"m 83 0 l 1258 0 l 671 986 z "},"△":{"ha":1344,"x_min":0,"x_max":0,"o":"m 672 989 l 83 1 l 1261 1 z m 232 83 l 672 821 l 1111 83 z "},"☮":{"ha":1250,"x_min":0,"x_max":0,"o":"m 625 -79 b 1167 463 924 -79 1167 164 b 625 1004 1167 761 924 1004 b 83 463 328 1004 83 761 b 625 -79 83 164 326 -79 z m 172 463 b 586 915 172 700 354 896 l 586 517 l 214 274 b 172 463 188 332 172 396 z m 1079 463 b 1039 275 1079 396 1064 332 l 667 517 l 667 915 b 1079 463 896 893 1079 697 z m 253 204 l 586 419 l 586 11 b 253 204 449 24 328 97 z m 667 419 l 999 206 b 667 11 924 99 804 24 z "},"✓":{"ha":1029,"x_min":0,"x_max":0,"o":"m 343 10 l 875 649 l 803 707 l 339 147 l 107 397 l 43 332 z "},"@":{"ha":1260,"x_min":0,"x_max":0,"o":"m 356 306 b 569 124 356 193 438 124 b 800 250 675 124 761 171 b 961 124 808 167 865 124 b 1201 460 1101 124 1201 264 b 631 1013 1201 782 963 1013 b 58 440 307 1013 58 764 b 631 -136 58 113 306 -136 b 985 -14 764 -136 885 -93 l 946 43 b 631 -67 857 -29 747 -67 b 133 440 349 -67 133 153 b 631 943 133 724 350 943 b 1126 460 919 943 1126 742 b 968 189 1126 299 1063 189 b 882 272 911 189 882 218 l 882 538 b 632 772 882 688 789 772 b 376 568 478 772 376 690 l 460 568 b 628 699 460 650 522 699 b 793 539 739 699 793 646 l 793 518 l 589 503 b 356 306 440 490 356 415 z m 444 307 b 610 436 444 383 501 426 l 793 450 l 793 419 b 589 197 793 281 715 197 b 444 307 496 197 444 236 z "},"&":{"ha":947,"x_min":0,"x_max":0,"o":"m 815 0 l 929 0 l 781 171 b 856 454 829 247 856 343 l 763 454 b 719 240 763 371 747 299 l 449 553 b 632 817 581 642 632 718 b 417 1011 632 933 544 1011 b 192 808 282 1011 192 928 b 318 569 192 735 228 675 b 64 253 139 472 64 379 b 410 -18 64 89 200 -18 b 726 103 540 -18 649 25 z m 397 613 b 285 808 307 717 285 758 b 415 931 285 883 335 931 b 540 814 493 931 540 886 b 399 611 540 736 496 672 z m 163 258 b 368 513 163 360 218 429 l 671 167 b 415 65 611 100 525 65 b 163 258 257 65 163 138 z "},"¶":{"ha":794,"x_min":0,"x_max":0,"o":"m 40 717 b 301 435 40 539 156 435 l 378 435 l 378 -92 l 467 -92 l 467 994 l 301 994 b 40 717 156 994 40 892 z m 646 -94 l 646 994 l 582 994 l 582 -94 z "},"§":{"ha":647,"x_min":0,"x_max":0,"o":"m 593 503 b 422 685 593 599 540 660 l 286 714 b 175 821 213 731 175 769 b 322 935 175 894 228 935 b 471 810 413 935 467 889 l 563 810 b 325 1014 558 935 467 1014 b 83 822 181 1014 83 936 b 196 664 83 750 119 694 b 54 494 107 636 54 569 b 224 313 54 400 104 339 l 361 283 b 472 176 435 267 472 228 b 324 63 472 103 419 63 b 176 188 235 63 179 110 l 85 188 b 322 -15 88 63 179 -15 b 564 175 465 -15 564 61 b 450 333 564 247 526 303 b 593 503 540 361 593 428 z m 500 499 b 324 375 500 422 439 375 b 146 499 208 375 146 422 b 324 622 146 575 208 622 b 500 499 439 622 500 575 z "},"©":{"ha":1135,"x_min":0,"x_max":0,"o":"m 567 -19 b 1079 497 857 -19 1079 206 b 567 1013 1079 788 856 1013 b 56 497 279 1013 56 788 b 567 -19 56 206 278 -19 z m 567 49 b 129 497 317 49 129 242 b 567 944 129 751 318 944 b 1006 497 817 944 1006 753 b 567 49 1006 242 818 49 z m 313 494 b 572 217 313 331 419 217 b 813 396 692 217 788 288 l 729 396 b 572 292 707 329 651 292 b 394 496 467 292 394 374 b 579 701 394 617 469 701 b 726 596 656 701 707 665 l 811 596 b 578 776 789 706 699 776 b 313 494 421 776 313 661 z "},"®":{"ha":667,"x_min":0,"x_max":0,"o":"m 335 460 b 611 738 493 460 611 578 b 335 1013 611 894 492 1013 b 56 738 178 1013 56 893 b 335 460 56 579 176 460 z m 335 503 b 101 738 200 503 101 603 b 335 969 101 869 201 969 b 567 738 467 969 567 871 b 335 503 567 603 467 503 z m 275 585 l 275 701 l 347 701 l 408 585 l 461 585 l 392 713 b 456 801 433 726 456 760 b 344 894 456 860 413 894 l 228 894 l 228 585 z m 406 799 b 343 744 406 764 382 744 l 275 744 l 275 850 l 343 850 b 406 799 382 850 406 833 z "},"℗":{"ha":667,"x_min":0,"x_max":0,"o":"m 335 460 b 611 738 493 460 611 578 b 335 1013 611 894 492 1013 b 56 738 178 1013 56 893 b 335 460 56 579 176 460 z m 335 503 b 101 738 200 503 101 603 b 335 969 101 869 201 969 b 567 738 467 969 567 871 b 335 503 567 603 467 503 z m 292 579 l 292 676 l 360 676 b 472 783 429 676 472 717 b 360 888 472 849 428 888 l 244 888 l 244 579 z m 292 843 l 358 843 b 422 782 399 843 422 824 b 358 721 422 740 399 721 l 292 721 z "},"™":{"ha":883,"x_min":0,"x_max":0,"o":"m 167 943 l 167 608 l 222 608 l 222 943 l 353 943 l 353 994 l 36 994 l 36 943 z m 456 608 l 456 875 l 576 608 l 628 608 l 747 879 l 747 608 l 800 608 l 800 994 l 747 994 l 603 667 l 456 994 l 403 994 l 403 608 z "},"°":{"ha":365,"x_min":0,"x_max":0,"o":"m 346 849 b 183 1013 346 943 275 1013 b 19 849 90 1013 19 943 b 183 686 19 756 90 686 b 346 849 275 686 346 756 z m 278 849 b 183 751 278 792 239 751 b 88 849 126 751 88 792 b 183 947 88 906 126 947 b 278 849 239 947 278 907 z "},"|":{"ha":432,"x_min":0,"x_max":0,"o":"m 176 -118 l 256 -118 l 256 1101 l 176 1101 z "},"¦":{"ha":432,"x_min":0,"x_max":0,"o":"m 256 1101 l 176 1101 l 176 601 l 256 601 z m 176 -118 l 256 -118 l 256 382 l 176 382 z "},"†":{"ha":414,"x_min":0,"x_max":0,"o":"m 172 375 l 242 375 l 242 789 l 379 789 l 379 856 l 242 856 l 242 994 l 172 994 l 172 856 l 35 856 l 35 789 l 172 789 z "},"‡":{"ha":415,"x_min":0,"x_max":0,"o":"m 172 375 l 242 375 l 242 547 l 381 547 l 381 614 l 242 614 l 242 757 l 379 757 l 379 824 l 242 824 l 242 994 l 172 994 l 172 824 l 35 824 l 35 757 l 172 757 l 172 614 l 36 614 l 36 547 l 172 547 z "},"℮":{"ha":1082,"x_min":0,"x_max":0,"o":"m 83 490 b 556 -12 83 192 272 -12 b 942 208 729 -12 874 72 l 889 228 b 558 43 831 118 701 43 b 222 206 411 43 294 103 l 222 456 l 997 456 b 999 529 999 476 999 503 b 542 986 999 815 810 986 b 83 490 275 986 83 783 z m 222 758 b 542 931 290 861 403 931 b 860 783 674 931 790 878 l 860 506 l 222 506 z "},"№":{"ha":1721,"x_min":0,"x_max":0,"o":"m 1653 689 b 1321 1014 1653 874 1508 1014 b 989 689 1133 1014 989 872 b 1321 358 989 506 1136 358 b 1653 689 1508 358 1653 501 z m 221 0 l 221 828 l 769 0 l 868 0 l 868 994 l 769 994 l 769 167 l 222 994 l 121 994 l 121 0 z m 1560 688 b 1321 446 1560 549 1457 446 b 1082 688 1189 446 1082 553 b 1321 925 1082 824 1185 925 b 1560 688 1458 925 1560 825 z m 1614 172 l 1614 258 l 1028 258 l 1028 172 z "},"^":{"ha":674,"x_min":0,"x_max":0,"o":"m 193 556 l 338 903 l 481 556 l 569 556 l 385 994 l 290 994 l 106 556 z "},"′":{"ha":242,"x_min":0,"x_max":0,"o":"m 174 949 b 121 1014 178 993 149 1014 b 67 949 93 1014 63 993 l 92 697 l 150 697 z "},"̈":{"ha":511,"x_min":0,"x_max":0,"o":"m 154 1092 b 222 1160 190 1092 222 1122 b 154 1229 222 1196 190 1229 b 85 1160 117 1229 85 1197 b 154 1092 85 1122 117 1092 z m 357 1092 b 425 1160 393 1092 425 1122 b 357 1229 425 1196 393 1229 b 288 1160 319 1229 288 1197 b 357 1092 288 1122 318 1092 z "},"̇":{"ha":275,"x_min":0,"x_max":0,"o":"m 138 1092 b 207 1161 175 1092 207 1124 b 138 1232 207 1199 175 1232 b 68 1161 99 1232 68 1199 b 138 1092 68 1122 99 1092 z "},"̀":{"ha":303,"x_min":0,"x_max":0,"o":"m 240 1064 l 160 1231 l 58 1231 l 163 1064 z "},"́":{"ha":306,"x_min":0,"x_max":0,"o":"m 246 1229 l 146 1229 l 63 1064 l 140 1064 z "},"̋":{"ha":467,"x_min":0,"x_max":0,"o":"m 236 1229 l 142 1229 l 58 1064 l 132 1064 z m 400 1229 l 303 1229 l 201 1064 l 278 1064 z "},"̂":{"ha":443,"x_min":0,"x_max":0,"o":"m 142 1064 l 222 1188 l 301 1064 l 388 1064 l 282 1233 l 161 1233 l 56 1064 z "},"̌":{"ha":443,"x_min":0,"x_max":0,"o":"m 161 1064 l 282 1064 l 388 1233 l 301 1233 l 222 1110 l 142 1233 l 56 1233 z "},"̆":{"ha":476,"x_min":0,"x_max":0,"o":"m 331 1231 b 239 1133 331 1169 300 1133 b 146 1231 178 1133 146 1169 l 68 1231 b 239 1058 68 1124 135 1058 b 408 1231 342 1058 408 1124 z "},"̊":{"ha":408,"x_min":0,"x_max":0,"o":"m 204 1060 b 354 1210 289 1060 354 1126 b 204 1360 354 1294 289 1360 b 54 1210 119 1360 54 1296 b 204 1060 54 1124 117 1060 z m 204 1125 b 125 1211 157 1125 125 1160 b 204 1296 125 1261 158 1296 b 285 1211 251 1296 285 1260 b 204 1125 285 1160 253 1125 z "},"̃":{"ha":515,"x_min":0,"x_max":0,"o":"m 133 1088 b 178 1163 133 1136 149 1163 b 342 1086 225 1163 261 1086 b 450 1235 414 1086 454 1139 l 382 1235 b 335 1160 382 1185 368 1160 b 167 1235 279 1160 242 1235 b 64 1086 99 1235 58 1179 z "},"̄":{"ha":489,"x_min":0,"x_max":0,"o":"m 83 1140 l 406 1140 l 406 1217 l 83 1217 z "},"̒":{"ha":256,"x_min":0,"x_max":0,"o":"m 197 1122 b 135 1182 197 1157 169 1182 b 114 1179 128 1182 121 1181 b 181 1233 117 1214 140 1235 l 181 1275 b 60 1142 121 1278 60 1228 b 132 1054 60 1086 89 1054 b 197 1122 168 1054 197 1083 z "},"̦":{"ha":256,"x_min":0,"x_max":0,"o":"m 192 -114 b 121 -28 192 -58 164 -28 b 56 -94 83 -28 56 -56 b 117 -154 56 -129 83 -154 b 139 -151 125 -154 132 -154 b 71 -207 135 -186 111 -207 l 71 -247 b 192 -114 132 -250 192 -201 z "},"̧":{"ha":318,"x_min":0,"x_max":0,"o":"m 53 -233 b 139 -254 76 -249 103 -254 b 263 -147 203 -254 263 -219 b 167 -56 263 -87 219 -56 b 126 -62 153 -56 140 -58 l 157 3 l 157 40 l 118 42 l 60 -86 l 72 -121 b 140 -104 100 -108 114 -104 b 196 -150 174 -104 196 -119 b 131 -197 196 -181 168 -197 b 53 -175 103 -197 79 -189 z "},"̸":{"ha":693,"x_min":0,"x_max":0,"o":"m 638 742 l 550 742 l 56 -57 l 144 -57 z "},"´":{"ha":306,"x_min":0,"x_max":0,"o":"m 246 1229 l 146 1229 l 63 1064 l 140 1064 z "},"˘":{"ha":476,"x_min":0,"x_max":0,"o":"m 331 1231 b 239 1133 331 1169 300 1133 b 146 1231 178 1133 146 1169 l 68 1231 b 239 1058 68 1124 135 1058 b 408 1231 342 1058 408 1124 z "},"ˇ":{"ha":443,"x_min":0,"x_max":0,"o":"m 161 1064 l 282 1064 l 388 1233 l 301 1233 l 222 1110 l 142 1233 l 56 1233 z "},"¸":{"ha":318,"x_min":0,"x_max":0,"o":"m 53 -233 b 139 -254 76 -249 103 -254 b 263 -147 203 -254 263 -219 b 167 -56 263 -87 219 -56 b 126 -62 153 -56 140 -58 l 157 3 l 157 40 l 118 42 l 60 -86 l 72 -121 b 140 -104 100 -108 114 -104 b 196 -150 174 -104 196 -119 b 131 -197 196 -181 168 -197 b 53 -175 103 -197 79 -189 z "},"ˆ":{"ha":443,"x_min":0,"x_max":0,"o":"m 142 1064 l 222 1188 l 301 1064 l 388 1064 l 282 1233 l 161 1233 l 56 1064 z "},"¨":{"ha":511,"x_min":0,"x_max":0,"o":"m 154 1092 b 222 1160 190 1092 222 1122 b 154 1229 222 1196 190 1229 b 85 1160 117 1229 85 1197 b 154 1092 85 1122 117 1092 z m 357 1092 b 425 1160 393 1092 425 1122 b 357 1229 425 1196 393 1229 b 288 1160 319 1229 288 1197 b 357 1092 288 1122 318 1092 z "},"˙":{"ha":275,"x_min":0,"x_max":0,"o":"m 138 1092 b 207 1161 175 1092 207 1124 b 138 1232 207 1199 175 1232 b 68 1161 99 1232 68 1199 b 138 1092 68 1122 99 1092 z "},"`":{"ha":303,"x_min":0,"x_max":0,"o":"m 240 1064 l 160 1231 l 58 1231 l 163 1064 z "},"˝":{"ha":467,"x_min":0,"x_max":0,"o":"m 236 1229 l 142 1229 l 58 1064 l 132 1064 z m 400 1229 l 303 1229 l 201 1064 l 278 1064 z "},"¯":{"ha":489,"x_min":0,"x_max":0,"o":"m 83 1140 l 406 1140 l 406 1217 l 83 1217 z "},"˛":{"ha":265,"x_min":0,"x_max":0,"o":"m 143 0 b 57 -115 88 -26 57 -69 b 158 -211 57 -171 97 -211 b 208 -203 176 -211 193 -208 l 208 -129 b 181 -135 197 -133 189 -135 b 132 -92 151 -135 132 -122 b 211 0 132 -61 156 -24 z "},"˚":{"ha":408,"x_min":0,"x_max":0,"o":"m 204 1060 b 354 1210 289 1060 354 1126 b 204 1360 354 1294 289 1360 b 54 1210 119 1360 54 1296 b 204 1060 54 1124 117 1060 z m 204 1125 b 125 1211 157 1125 125 1160 b 204 1296 125 1261 158 1296 b 285 1211 251 1296 285 1260 b 204 1125 285 1160 253 1125 z "},"˜":{"ha":515,"x_min":0,"x_max":0,"o":"m 133 1088 b 178 1163 133 1136 149 1163 b 342 1086 225 1163 261 1086 b 450 1235 414 1086 454 1139 l 382 1235 b 335 1160 382 1185 368 1160 b 167 1235 279 1160 242 1235 b 64 1086 99 1235 58 1179 z "},"":{"ha":2415,"x_min":0,"x_max":0,"o":"m 139 0 l 439 0 l 439 972 l 139 972 z m 501 689 l 801 689 l 801 972 l 501 972 z m 863 0 l 1164 0 l 1164 972 l 863 972 z m 1225 689 l 1525 689 l 1525 972 l 1225 972 z m 1586 0 l 1888 0 l 1888 972 l 1586 972 z m 1949 689 l 2249 689 l 2249 972 l 1949 972 z m 1949 343 l 2249 343 l 2249 628 l 1949 628 z "},"ı":{"ha":296,"x_min":0,"x_max":0,"o":"m 100 0 l 196 0 l 196 672 l 100 672 z "},"ȷ":{"ha":296,"x_min":0,"x_max":0,"o":"m -79 -294 b 11 -307 -44 -304 -25 -307 b 196 -101 129 -307 196 -229 l 196 672 l 100 672 l 100 -96 b 4 -217 100 -178 71 -217 b -61 -207 -17 -217 -33 -214 z "},"̵":{"ha":678,"x_min":0,"x_max":0,"o":"m 100 844 l 100 776 l 501 776 l 501 844 z "},"̷":{"ha":322,"x_min":0,"x_max":0,"o":"m 28 440 l 296 568 l 296 646 l 28 517 z "}}}
